/* XPM */
static char *result[] = {
/* columns rows colors chars-per-pixel */
"64 64 245 2 ",
"   c #5F4623",
".  c #53381B",
"X  c #3D1F0E",
"o  c #54341E",
"O  c #99784B",
"+  c #C7A568",
"@  c #DDB673",
"#  c #E8C079",
"$  c #E8BF79",
"%  c #E9C079",
"&  c #C5A163",
"*  c #C6A263",
"=  c #C9A565",
"-  c #C8A565",
";  c #CAA665",
":  c #7F6337",
">  c #836739",
",  c #8A6F3C",
"<  c #836639",
"1  c #8E733E",
"2  c #4F3419",
"3  c #53391B",
"4  c #5A411E",
"5  c #52381A",
"6  c #5E4520",
"7  c #5D4520",
"8  c #3A1C0C",
"9  c #3C1E0D",
"0  c #3E200E",
"q  c #3F220F",
"w  c #98784B",
"e  c #DCB673",
"r  c #E6BE77",
"t  c #E6BF78",
"y  c #E7C178",
"u  c #E7C078",
"i  c #E8C278",
"p  c #E5BD77",
"a  c #E9C679",
"s  c #EAC97A",
"d  c #E6C078",
"f  c #E7C278",
"g  c #EAC879",
"h  c #EBCC7A",
"j  c #E7C378",
"k  c #EBCB7A",
"l  c #EAC979",
"z  c #E9C579",
"x  c #E9C779",
"c  c #EBCA7A",
"v  c #EAC87A",
"b  c #DBB572",
"n  c #C6A367",
"m  c #AC8856",
"M  c #90673F",
"N  c #78512F",
"B  c #664826",
"V  c #5E4522",
"C  c #5E4622",
"Z  c #54391C",
"A  c #3F2110",
"S  c #3F210F",
"D  c #402110",
"F  c #371A0B",
"G  c #361A0B",
"H  c #371A0C",
"J  c #391C0D",
"K  c #3B1D0E",
"L  c #371B0C",
"P  c #3A1C0D",
"I  c #3A1D0E",
"U  c #381B0C",
"Y  c #3B260F",
"T  c #3A260F",
"R  c #3A250E",
"E  c #3D2711",
"W  c #432C15",
"Q  c #472F17",
"!  c #442D15",
"~  c #3D2811",
"^  c #462F17",
"/  c #3D2C11",
"(  c #3F2F12",
")  c #443314",
"_  c #493818",
"`  c #4F3B1C",
"'  c #523C1E",
"]  c #4E391B",
"[  c #453316",
"{  c #402E13",
"}  c #3E2D12",
"|  c #443414",
" . c #483717",
".. c #4C381B",
"X. c #4F391D",
"o. c #513B1E",
"O. c #4F3A1D",
"+. c #4A361A",
"@. c #443216",
"#. c #3F2E12",
"$. c #433114",
"%. c #473417",
"&. c #4B371B",
"*. c #412F14",
"=. c #3C2B11",
"-. c #52431C",
";. c #5A4920",
":. c #5A4521",
">. c #5B4221",
",. c #5B4321",
"<. c #563F1F",
"1. c #453217",
"2. c #3F2E13",
"3. c #53431C",
"4. c #57461F",
"5. c #503D1D",
"6. c #503A1D",
"7. c #574020",
"8. c #503B1D",
"9. c #4C371B",
"0. c #463317",
"q. c #503A1B",
"w. c #543D1E",
"e. c #493519",
"r. c #3B2A10",
"t. c #473716",
"y. c #5E4E21",
"u. c #675526",
"i. c #624B23",
"p. c #5F4522",
"a. c #483419",
"s. c #483716",
"d. c #5F4F21",
"f. c #645324",
"g. c #574320",
"h. c #5F4622",
"j. c #543E1F",
"k. c #4E391D",
"l. c #463415",
"z. c #5C4520",
"x. c #614A23",
"c. c #56401F",
"v. c #5C4321",
"b. c #553E1F",
"n. c #4E391C",
"m. c #4D381C",
"M. c #4A3917",
"N. c #665523",
"B. c #705C28",
"V. c #644D24",
"C. c #5A4221",
"Z. c #3F2D13",
"A. c #675524",
"S. c #6F5B28",
"D. c #5D4422",
"F. c #5D4522",
"G. c #513B1D",
"H. c #4A3816",
"J. c #665223",
"K. c #6E5828",
"L. c #604923",
"P. c #573F1F",
"I. c #4E3C19",
"U. c #6B5825",
"Y. c #735F2A",
"T. c #654E25",
"R. c #5E4422",
"E. c #4B3A17",
"W. c #6A5825",
"Q. c #745F2A",
"!. c #664E25",
"~. c #49351A",
"^. c #423015",
"/. c #4F3D19",
"(. c #6C5926",
"). c #4C381C",
"_. c #55411E",
"`. c #6D5A27",
"'. c #735F29",
"]. c #654D24",
"[. c #523B1E",
"{. c #4B361B",
"}. c #6E5B27",
"|. c #4C371C",
" X c #584320",
".X c #6E5B28",
"XX c #4F3C19",
"oX c #6B5926",
"OX c #6E5A27",
"+X c #5A4220",
"@X c #584420",
"#X c #654E24",
"$X c #473318",
"%X c #523F1D",
"&X c #685625",
"*X c #634C24",
"=X c #594220",
"-X c #4A361B",
";X c #53401D",
":X c #695725",
">X c #412F15",
",X c #4C3B18",
"<X c #594120",
"1X c #493817",
"2X c #5D4E21",
"3X c #665425",
"4X c #604A23",
"5X c #5D4421",
"6X c #4F3D1C",
"7X c #605022",
"8X c #4D3519",
"9X c #553E1D",
"0X c #634D24",
"qX c #6A5328",
"wX c #684D27",
"eX c #674927",
"rX c #674A27",
"tX c #644726",
"yX c #5E4223",
"uX c #573D20",
"iX c #50381B",
"pX c #543E1D",
"aX c #684A27",
"sX c #5D4223",
"dX c #5A3F22",
"fX c #5F4524",
"gX c #675027",
"hX c #6A5228",
"jX c #644725",
"kX c #724D2C",
"lX c #744F2D",
"zX c #79542F",
"xX c #7B5630",
"cX c #7B5430",
"vX c #7A5330",
"bX c #795230",
"nX c #77512F",
"mX c #754F2E",
"MX c #734D2C",
"NX c #76502F",
"BX c #77522F",
"VX c #7A5530",
"CX c #7A5430",
"ZX c #7B5330",
"AX c white",
/* pixels */
"                                                                                                                                ",
". . . . . . . . . . . . . . . . . . . . . . . . . . . . . . . . . . . . . . . . . . . . . . . . . . . . . . . . . . . . . . . . ",
"X X X X X X X X X X X X X X X X X X X X X X X X X X X X X X X X X X X X X X X X X X X X X X X X X X X X X X X X X X X X X X X X ",
"o o o o o o o o o o o o o o o o o o o o o o o o o o o o o o o o o o o o o o o o o o o o o o o o o o o o o o o o o o o o o o o o ",
"O O O O O O O O O O O O O O O O O O O O O O O O O O O O O O O O O O O O O O O O O O O O O O O O O O O O O O O O O O O O O O O O ",
"+ + + + + + + + + + + + + + + + + + + + + + + + + + + + + + + + + + + + + + + + + + + + + + + + + + + + + + + + + + + + + + + + ",
"@ @ @ @ @ @ @ @ @ @ @ @ @ @ @ @ @ @ @ @ @ @ @ @ @ @ @ @ @ @ @ @ @ @ @ @ @ @ @ @ @ @ @ @ @ @ @ @ @ @ @ @ @ @ @ @ @ @ @ @ @ @ @ @ ",
"# # $ $ # # $ $ $ $ $ $ $ $ $ $ $ $ $ $ $ $ $ $ $ $ $ $ $ $ $ $ $ $ $ $ $ $ $ $ $ $ $ $ $ $ $ $ $ $ $ $ $ $ $ $ $ $ # # $ $ # # ",
"% % # # % % # # # # # # # # # # # # # # # # # # # # # # # # # # # # # # # # # # # # # # # # # # # # # # # # # # # # % % # # % % ",
"& * = = * * - ; ; ; ; ; ; ; ; ; ; ; ; ; ; ; ; ; ; ; ; ; ; ; ; ; ; ; ; ; ; ; ; ; ; ; ; ; ; ; ; ; ; ; ; ; ; ; ; ; ; - * * = = * & ",
": > , , > < , 1 1 1 1 1 1 1 1 1 1 1 1 1 1 1 1 1 1 1 1 1 1 1 1 1 1 1 1 1 1 1 1 1 1 1 1 1 1 1 1 1 1 1 1 1 1 1 1 1 1 , < > , , > : ",
"2 3 4 4 3 5 4 6 6 7 7 7 7 7 7 7 7 7 7 7 7 7 7 7 7 7 7 7 7 7 7 7 7 7 7 7 7 7 7 7 7 7 7 7 7 7 7 7 7 7 7 7 7 7 7 6 6 4 5 3 4 4 3 2 ",
"8 9 0 0 9 9 0 q q q q q q q q q q q q q q q q q q q q q q q q q q q q q q q q q q q q q q q q q q q q q q q q q q 0 9 9 0 0 9 8 ",
"o o o o o o o o o o o o o o o o o o o o o o o o o o o o o o o o o o o o o o o o o o o o o o o o o o o o o o o o o o o o o o o o ",
"O w w w w w w w w w w w w w w w w w w w w w w w w w w w w w w w w w w w w w w w w w w w w w w w w w w w w w w w w w w w w w w O ",
"+ + + + + + + + + + + + + + + + + + + + + + + + + + + + + + + + + + + + + + + + + + + + + + + + + + + + + + + + + + + + + + + + ",
"@ @ e e @ @ e e @ @ e e @ @ e e @ @ e e @ @ e e @ @ e e @ @ e e @ @ e e @ @ e e @ @ e e @ @ e e @ @ e e @ @ e e @ @ e e @ @ e e ",
"r t y y t t y y t t y y t t y y t t y y t t y y t t y y t t y y t t y y t t y y t t y y t t y y t t y y t t y y t t y y t t u i ",
"p u a a u u a a u u a a u u a a u u a a u u a a u u a a u u a a u u a a u u a a u u a a u u a a u u a a u u a a u u a a u u a s ",
"d f a a f f a a f f a a f f a a f f a a f f a a f f a a f f a a f f a a f f a a f f a a f f a a f f a a f f a a f f a a f f a g ",
"g a f f a a f f a a f f a a f f a a f f a a f f a a f f a a f f a a f f a a f f a a f f a a f f a a f f a a f f a a f f a a f d ",
"h s j f a a f j s s j f a a f j s s j f a a f j s s j f a a f j s s j f a a f j s s j f a a f j s s j f a a f j s s j f a a f d ",
"h k l z f f z l k k l z f f z l k k l z f f z l k k l z f f z l k k l z f f z l k k l z f f z l k k l z f f z l k k l z f f a g ",
"x l k l j j l k g g k l j j l k g g k l j j l k g g k l j j l k g g k l j j l k g g k l j j l k g g k l j j l k g g k l j j l h ",
"d j g c g g c g j j g c g g c g j j g c g g c g j j g c g g c g j j g c g g c g j j g c g g c g j j g c g g c g j j g c g g c k ",
"d j g k k k k g f f g k k k k g f f g k k k k g f f g k k k k g f f g k k k k g f f g k k k k g f f g k k k k g f f g k k k k k ",
"x g c k k k k c g g c k k k k c g g c k k k k c g g c k k k k c g g c k k k k c g g c k k k k c g g c k k k k c g g c k k k k k ",
"k k k k k k k k k k k k k k k k k k k k k k k k k k k k k k k k k k k k k k k k k k k k k k k k k k k k k k k k k k k k k k k k ",
"k k k k k k k k k k k k k k k k k k k k k k k k k k k k k k k k k k k k k k k k k k k k k k k k k k k k k k k k k k k k k k k k ",
"k k k k k k k k k k k k k k k k k k k k k k k k k k k k k k k k k k k k k k k k k k k k k k k k k k k k k k k k k k k k k k k k ",
"k k k k k k k k k k k k k k k k k k k k k k k k k k k k k k k k k k k k k k k k k k k k k k k k k k k k k k k k k k k k k k k k ",
"k k k k k k k k k k k k k k k k k k k k k k k k k k k k k k k k k k k k k k k k k k k k k k k k k k k k k k k k k k k k k k k k ",
"k k k k k k k k k k k k k k k k k k k k k k k k k k k k k k k k k k k k k k k k k k k k k k k k k k k k k k k k k k k k k k k k ",
"v v v v v v v v v v v v v v v v v v v v v v v v v v v v v v v v v v v v v v v v v v v v v v v v v v v v v v v v v v v v v v v v ",
"y y y y y y y y y y y y y y y y y y y y y y y y y y y y y y y y y y y y y y y y y y y y y y y y y y y y y y y y y y y y y y y y ",
"b b b b b b b b b b b b b b b b b b b b b b b b b b b b b b b b b b b b b b b b b b b b b b b b b b b b b b b b b b b b b b b b ",
"n n n n n n n n n n n n n n n n n n n n n n n n n n n n n n n n n n n n n n n n n n n n n n n n n n n n n n n n n n n n n n n n ",
"m m m m m m m m m m m m m m m m m m m m m m m m m m m m m m m m m m m m m m m m m m m m m m m m m m m m m m m m m m m m m m m m ",
"M M M M M M M M M M M M M M M M M M M M M M M M M M M M M M M M M M M M M M M M M M M M M M M M M M M M M M M M M M M M M M M M ",
"N N N N N N N N N N N N N N N N N N N N N N N N N N N N N N N N N N N N N N N N N N N N N N N N N N N N N N N N N N N N N N N N ",
"B B B B B B B B B B B B B B B B B B B B B B B B B B B B B B B B B B B B B B B B B B B B B B B B B B B B B B B B B B B B B B B B ",
"V V V V V V V V V V V V V V V V V V V V V V V V V V V V V V V V V V V V V V V V V V V V V V V V V V V V V V V V V V V V V V V V ",
"C C C C C C C C C C C C C C C C C C C C C C C C C C C C C C C C C C C C C C C C C C C C C C C C C C C C C C C C C C C C C C C C ",
"Z Z Z Z Z Z Z Z Z Z Z Z Z Z Z Z Z Z Z Z Z Z Z Z Z Z Z Z Z Z Z Z Z Z Z Z Z Z Z Z Z Z Z Z Z Z Z Z Z Z Z Z Z Z Z Z Z Z Z Z Z Z Z Z ",
"A A A A S S S S A A A A A A S S S S S S S S A A A A A A S S S S S S S S A A A A A A S S S S S S S S A A A A A A S S S S S S A D ",
"F F G H J K K J L G F F G H P K I I I I K P U G F F G H P K I I I I K P U G F F G L P K I I I I K P U G F F G H P K I I K P L G ",
"Y T R E W Q Q ! ~ T T T R E ! Q Q ^ ^ Q Q ! ~ T T T R E ! Q Q ^ ^ Q Q ! ~ T T T R ~ ! Q Q ^ ^ Q Q ! ~ T T T R E ! Q Q Q Q ! ~ R ",
"/ ( ) _ ` ' ' ] [ { } ( |  ...X.o.' ' o.O.+.@.{ } ( |  ...X.o.' ' o.O.+.@.{ } #.$.%.&.O.o.' ' o.O.+.@.{ } ( |  ...O.o.o.O.+.@.*.",
"=.| -.;.:.>.,.<.] 1.2.| 3.4.5.6.7.,.,.7.8.9.+.0.2.| 3.4.5.6.7.,.,.7.8.9.+.0.2.$.q.w.O.8.7.,.,.7.8.9.+.0.2.| 3.4.5.6.7.7.8.9.+.e.",
"r.t.y.u.i.V p.>.' a.{ s.d.f.g.w.>.h.h.,.j.6.k.e.{ s.d.f.g.w.>.h.h.,.j.6.k.e.{ l.z.x.c.w.,.h.h.,.j.6.k.e.{ s.d.f.g.w.,.v.b.6.n.m.",
"r.M.N.B.V.V V C.' a.Z.M.A.S.x.C.D.V V F.,.7.G.a.2.M.A.S.x.C.D.V V F.,.7.G.a.Z.H.J.K.L.C.D.V V F.,.7.G.a.2.M.A.S.x.C.D.F.,.P.6.m.",
"Z.I.U.Y.T.R.V C.o.a.Z.E.W.Q.!.R.V V V V h.C.' a.Z.E.W.Q.!.R.V V V V h.C.o.~.^./.(.Q.!.R.V V V V h.C.' a.Z.E.W.Q.!.R.V V h.C.G.).",
"a._.`.'.].R.V C.o.a.Z.E.W.Y.T.R.V V V V p.C.[.a.Z.E.W.Y.T.R.V V V V p.C.o.{.~._.}.'.T.R.V V V V p.C.[.a.Z.E.W.Y.T.R.V V p.C.G.).",
"|. X.X'.].R.V C.o.~.^.XXoX'.T.D.V V V V V C.o.~.^.XXoX'.T.D.V V V V V C.o.{.~._.OX'.].D.V V V V V C.o.~.^.XXoX'.T.D.V V V +XG.).",
"|.@X.X'.].R.V C.o.{.~._.}.'.#XD.V V V V V C.o.{.~._.}.'.#XD.V V V V V C.o.e.^.I.oXY.T.D.V V V V V C.o.{.~._.}.'.#XD.V V V +XG.).",
"$X%X&X.X*XD.V =X8.-Xa.;X:X.X*XD.D.F.F.V V =X8.-Xa.;X:X.X*XD.D.F.F.V V =XG.a.>X,XA.S.*XD.D.F.F.V V =X8.-Xa.;X:X.X*XD.D.V V <X8.9.",
"} 1X2X3X4XD.F.=X8.a.>X1Xy.3X4X5XD.F.F.F.V =X8.a.>X1Xy.3X4X5XD.F.F.F.V <X8.+.a.6X7X3X4X5XD.F.F.F.V =X8.a.>X1Xy.3X4X5XD.F.V <X6.&.",
"8X9X0XqXwXeXrXtXyXuXiXpX0XqXwXeXeXrXrXrXaXtXyXuXiXpX0XqXwXeXeXrXrXrXaXtXsXdXdXfXgXhXwXeXeXrXrXrXaXtXyXuXiXpX0XqXwXeXeXrXaXjXsXdX",
"kXlXzXxXcXvXvXbXnXmXMXlXzXxXcXvXvXvXvXvXvXbXnXmXMXlXzXxXcXvXvXvXvXvXvXbXnXNXNXBXVXxXCXvXvXvXvXvXvXbXnXmXMXlXzXxXcXvXvXvXvXbXnXNX",
"cXZXvXvXvXvXvXvXvXZXcXZXvXvXvXvXvXvXvXvXvXvXvXZXcXZXvXvXvXvXvXvXvXvXvXvXvXZXZXvXvXvXvXvXvXvXvXvXvXvXvXZXcXZXvXvXvXvXvXvXvXvXvXZX",
"aXaXrXeXrXrXrXrXrXaXaXaXrXeXrXrXrXrXrXrXrXrXrXaXaXaXrXeXrXrXrXrXrXrXrXrXrXrXrXrXeXeXrXrXrXrXrXrXrXrXrXaXaXaXrXeXrXrXrXrXrXrXrXrX",
"F.F.F.F.F.F.F.F.F.F.F.F.F.F.F.F.F.F.F.F.F.F.F.F.F.F.F.F.F.F.F.F.F.F.F.F.F.F.F.F.F.F.F.F.F.F.F.F.F.F.F.F.F.F.F.F.F.F.F.F.F.F.F.F.",
"F.F.F.F.F.F.F.F.F.F.F.F.F.F.F.F.F.F.F.F.F.F.F.F.F.F.F.F.F.F.F.F.F.F.F.F.F.F.F.F.F.F.F.F.F.F.F.F.F.F.F.F.F.F.F.F.F.F.F.F.F.F.F.F.",
"V V V V V V V V V V V V V V V V V V V V V V V V V V V V V V V V V V V V V V V V V V V V V V V V V V V V V V V V V V V V V V V V "
};
