/* XPM */
static char *result[] = {
/* columns rows colors chars-per-pixel */
"64 64 129 2 ",
"   c #3F301B",
".  c #372F24",
"X  c #3A2F21",
"o  c #3D3222",
"O  c #43321B",
"+  c #4A361B",
"@  c #46391F",
"#  c #4D3A1D",
"$  c #533D1E",
"%  c #413422",
"&  c #493C20",
"*  c #523D22",
"=  c #593E2A",
"-  c #57411E",
";  c #5B421F",
":  c #554325",
">  c #5C4524",
",  c #5D4926",
"<  c #574729",
"1  c #59462A",
"2  c #57482B",
"3  c #5B4B2C",
"4  c #604725",
"5  c #624A26",
"6  c #684D27",
"7  c #634C2B",
"8  c #6A4E28",
"9  c #6F542F",
"0  c #77582F",
"q  c #78592F",
"w  c #614732",
"e  c #624E33",
"r  c #654C38",
"t  c #635436",
"y  c #685332",
"u  c #6E5A37",
"i  c #645638",
"p  c #665939",
"a  c #6C5A3A",
"s  c #7C5E35",
"d  c #715E3B",
"f  c #6C613E",
"g  c #7F6037",
"h  c #73613D",
"j  c #7E613A",
"k  c #725C46",
"l  c #756241",
"z  c #7B6543",
"x  c #7C6847",
"c  c #77664C",
"v  c #79674C",
"b  c #7A694D",
"n  c #7D6E52",
"m  c #7F7155",
"M  c #815E33",
"N  c #846134",
"B  c #886437",
"V  c #846339",
"C  c #8A673C",
"Z  c #8B693D",
"A  c #926B3C",
"S  c #806641",
"D  c #8E6C42",
"F  c #8C6E48",
"G  c #906D42",
"H  c #8B714D",
"J  c #957449",
"K  c #856F50",
"L  c #877356",
"P  c #887354",
"I  c #85755C",
"U  c #87795E",
"Y  c #8B7B5D",
"T  c #937750",
"R  c #977C55",
"E  c #927F5B",
"W  c #8C7E64",
"Q  c #907D60",
"!  c #93805C",
"~  c #8E8166",
"^  c #8F8469",
"/  c #928366",
"(  c #998765",
")  c #91856A",
"_  c #968B6E",
"`  c #9E8B6B",
"'  c #93906F",
"]  c #958E71",
"[  c #998E72",
"{  c #959573",
"}  c #9C9376",
"|  c #999975",
" . c #9F9379",
".. c #9E9C7A",
"X. c #AA9466",
"o. c #B69F6E",
"O. c #A19579",
"+. c #A2997E",
"@. c #A5A07A",
"#. c #BDA87D",
"$. c #C2AD7B",
"%. c #A59C81",
"&. c #A3A684",
"*. c #A9A385",
"=. c #ABA589",
"-. c #ACAB8D",
";. c #B4A983",
":. c #ADB18F",
">. c #B3B18A",
",. c #AFAF90",
"<. c #AFB492",
"1. c #AFB894",
"2. c #B0B593",
"3. c #BFB694",
"4. c #B0B995",
"5. c #BAB79A",
"6. c #B4BB99",
"7. c #BBB89B",
"8. c #C0B693",
"9. c #C2BA97",
"0. c #BDC09D",
"q. c #BEC2A2",
"w. c #DBC592",
"e. c #E0CF9E",
"r. c #E0D09F",
"t. c #C3C5A6",
"y. c #CDC6A3",
"u. c #CEC9A4",
"i. c #D7CAA0",
/* pixels */
"+ + + + # # - - - @ # # + + + + # # - ; ; ; - ; ; ; ; - # # + + + + + + # - - - # @ # + # + + # @ # - ; ; ; ; > ; ; ; - - @ # + ",
"i i i t i p a u e 2 * * # * > e d h h l h h d h h h h a p t e e t t i p t p u p e < : $ # * < 7 u h h h l f d d d h h a p t t 3 ",
"{ { { ' ] _ [ / m k e 1 * > k E o.$.;.*...| | | | | | { { ) ~ ^ ' { { ' ' _ ' / I k r = # = k R o.$.;.*.| | | | | | | { ' ) ~ Y ",
"2.2.2.:.=.=.=.%._ I k w * e E #.w.i.y.0.6.4.1.1.4.4.4.2.:.=.&.*.:.1.1.:.-.=.-.+._ I k w * e ! #.w.r.u.t.6.1.1.1.4.4.1.<.:.=.*.*.",
"-.-.,.=.*.%.%.+.O.) b t & d o.w.i.y.0.6.1.1.1.1.4.1.1.1.<.<.:.-.-.-.-.-.%.%.%.+.} ) b y : a o.w.w.u.6.6.4.1.<.1.1.1.1.1.<.<.:.:.",
"+.+.+.O.` ` ` ` ` Q K i : h $.e.t.5.-.&.&.&.&.&.&.&.&.&.&.&.&.&.%.+.%.O.` ` ` ` ` / b p : h $.e.u.7.-.&.&.&.&.&.&.&.&.&.*.&.&.&.",
"^ ~ ~ Y T J J J J F x a 4 z ;.y.5.*.[ ^ ^ ^ ^ ^ ^ ^ ^ ^ ^ ^ ^ ~ ^ W W W T J J J J J x p : f ;.y.5.&.[ ~ ^ ^ ^ ^ ^ ^ ) ) ^ ) ) ) ",
"I I I L F D D Z A Z z a 5 h *.7.=.[ W m I I I I I I I L I I I I I I L L F D D A Z C z p : f %.7.=.[ W I I I I I m I m I I I m I ",
"I I I I L K L F G C z a , d  .=.[ W I I I I I L I I I I I I I I I I I I L P L F D Z z p , d } =.) W I I I I I I I I m I I I I m ",
"I I I I W m W L D C z a 7 a _ +.~ I I I I I I I I I I I I I I I I I I I I I I L D C z a 4 a _ +.W I I I I I I I I I I I I I m W ",
"I I I I m W I K G C z a 7 u /  .W I I I I I I I I I I I I I I I I I I I I I U P G C z a 7 a / } W I I I I I I I I m I I I I I I ",
"I I I m W m W L G D z a 7 u / [ W I I I I I I I I I I I I I U I W I I L W I I P G Z z a 6 u / } W I I I I I I I I W W I I I I W ",
"I W I I I W I L G Z z a 7 u /  .W I I I I I I W I U I I U I U I I I I I U I I P F Z z a 5 a /  .W W I I I I I W W I I I I I I W ",
"c c c c x x c z j s u e = 6 K I n c b b v c c v c c x c c c c b v c b b b b b x V s u t > 7 n U n v v c v v v c c c v c c c c c ",
"8 7 7 8 7 y y 7 , > : $ # * 1 w 3 3 7 7 3 2 1 1 2 1 2 2 < , 3 7 7 7 y 7 8 y e 7 , > : * $ * 2 w 3 3 7 7 3 3 1 1 1 1 1 1 < 3 3 7 ",
"d d d k h a f a p t e t t i t t i p a u e 2 * # # $ : w f h l l d d d d d a d a i t e e t t i t i p a p e 2 * # # # : e u h h z ",
"| | | | | | | | ] ^ ~ ^ { { { { ] _ ` ) m k w = # 1 k E o.$.;.*...| | | | | | { ] ^ W ^ ] { { { _ _ ] / m k r = & = l E o.8.#.*.",
"1.1.1.1.1.1.1.1.,.=.*.&.-.1.1.,.=.=.=.%._ I k w # t E #.w.r.u.q.6.1.1.1.1.1.1.<.<.-.*.&.,.1.<.,.-.=.=.%._ I k w * w ! #.w.w.u.t.",
"1.1.1.1.1.1.1.1.<.<.<.-.,.,.-.=.%.%.%.+.O./ n r : u o.w.w.y.q.4.1.1.1.1.1.1.1.1.<.<.<.-.,.,.,.=.%.+.%.+.O.) b i : u o.w.w.y.0.6.",
"&.&.&.&.&.&.&.&.&.&.&.&.%...%. .[ ` ` ` ` / b p > h $.e.u.7.-.&.&.&.&.&.&.&.&.&.&.&.&.&.%. .O. .` ` ` ` ` Q K i : d $.e.t.6.-.&.",
"~ ~ ^ ^ ^ ^ ^ ^ W ^ ^ ~ ^ W W W T J J J J H x a , l ;.y.5.*.] ~ ^ ^ ^ ^ W ^ ^ ~ ^ ^ ^ ^ W W ^ W R J J J J H z p : k ;.y.7.=.[ ^ ",
"I I I I I I I I I I I I I I I L F D D A A Z z a 5 h *.5.=.[ W I I I I I I I I I I I I I I L W K F D D D A C z a : a &.7.=.[ W I ",
"I I I I m I I I I I I I I I I L L P L H Z C z a 5 k  .=.[ W I I m I I I I I I m I I I I I I I I L P P F Z Z z p , f  .=.[ W I I ",
"I I I I I I I I I I I I I I I I I I I L G C z a 5 a ]  .W I I I I I I I I I I I I I I I I I I I I I I L G Z z a , a ]  .W m I I ",
"I I I I I I I I I I I I I I I I I I I L G C z a 5 a / [ W I I I I I I I I I I I I I I L I I I I I I I L G C z a 5 u / O.W I I I ",
"I I I I I U I U I I I U I I I I I I W L G Z z a 7 a Q  .^ I I I I I I I I I I I I I I W W I I I I I W L G Z z a 5 u / [ W W I I ",
"I I I W I I I I I I I W W I I I I I I L G D x a 4 a / O.W I I I W I W I I I I I I I I W I I W I I I W K G D z a 5 u / } W I I I ",
"c c c c c b b b v c c c v c c c c c v z M s d y 4 y K W n c c c c k c c c c b b c c c c c c k c c c v x M s d y , y P U n c c c ",
"= : 1 < 2 3 7 7 3 3 1 1 1 1 1 < 2 3 7 7 7 6 5 5 > 4 y y 3 3 < < < 1 1 1 3 3 7 7 3 3 1 1 2 2 1 < 2 3 7 7 6 5 5 4 ; > y y e 2 < 1 ",
"i t t t i i p u e < * & # * < 7 a h h l h h a h d d d a p t e e t t t i i p a p 3 < * & + $ : 7 p h h l h h d h h h h a t t e e ",
"{ { { { ] _ ] ^ m k w = * > k E o.$.;.*...| | | | | | { ' ) ~ ~ _ { { { { _ { / I k r = * = l E o.$.;.=...| | | | | | { _ ) W W ",
"<.<.1.<.-.=.=.%._ I k w * w E #.w.r.i.q.6.1.1.1.4.4.4.1.>.-.*.*.:.1.2.:.=.=.=.%.) I k w * 7 ! #.w.r.y.t.6.1.4.4.4.4.1.<.<.-.&.%.",
"-.,.,.=.%.%.%.O. .) b i : d o.w.i.y.0.4.1.1.1.<.1.1.1.<.<.<.<.-.-.-.-.-.%.%.%.+.O.) b i * a o.w.w.u.0.6.1.1.1.1.1.1.1.<.<.<.-.:.",
"%.O.%. .` ` ` ` ` Q K i : h $.e.y.6.-.&.&.&.&.&.&.&.&.&.&.&.&.&.%.+.+.O.` ` ` ` ` Q K i : h 8.w.y.7.-.&.&.&.&.&.&.&.&.&.&.&.&.&.",
"W W W Q T J J J J H z a 4 z ;.u.5.*._ ~ ^ ^ ^ ^ ^ ^ ^ ^ ^ ^ ^ ^ ^ W ~ W T J J J J F v a : f ;.y.5.=.] ~ W ^ ^ ^ ^ ^ ^ ^ ^ ^ ^ ^ ",
"I I W K F D D D A Z z a 5 h %.7.=.[ W I I I m I I I I I I I I L I I I L F D D A A C z i : f &.5.=.{ W m I I I I I I I I I I I I ",
"I I I I K L P K G C z a 7 u  .=.[ W W m I I I I I I I m I I I I I I I L K K K K G C z a , d } =.[ W I I I I I I I I I I I m I I ",
"I I I I I I W K D C z a 7 u _ O.W I I I I I I I I I I I I I I I I I I I I W I L G C z a 7 d _ +.W I I I I I I I I I I I I I I I ",
"I I I I I I I L G C z a 7 a / } W I m W I I I I I I I I I I I I I I I I I I I L G Z z a 4 a /  .W I I I I I I I I I I I I I I I ",
"I I I I I I W L G Z z a 6 u / } W I m I W I I U I I I I I U I I I I I I W I I L G Z z a 4 u ) [ W I I I I I I I I I I I U I U I ",
"I I I I I W I L D Z z a 5 u / } W W I I U I I W I W I W I I I I I I I W I W I L G D z a 5 a )  .W I U I W I I W I W I I I I I U ",
"v v b b b b b x g s u t , 7 n U n k b b b c c c c c c k c c v b v b v x c x c z j s a e > 7 K I n x v b c v k c c c c c v c b b ",
"7 y 7 7 y 7 7 7 < > : $ $ * 2 w 2 3 w 7 3 3 1 1 1 2 1 < 2 3 3 7 8 e 7 7 7 y 7 y , > : $ $ $ 1 3 3 3 7 7 3 2 2 2 < 2 1 1 3 3 7 e ",
"d d d d d d d d p t e t t t i t i i a a e < * # # $ : 7 u h h z l d d d h a h a p t e e i i i t i p a a 3 1 * $ + # 1 w p a d d ",
"| | | | | | | | ] ) ~ ^ _ | { { ] _ [ / m k w = & 1 k ! #.$.;.*...| | | | | | { { ^ ~ ^ ' { { { ] ] ] ~ m k r = # > l Y ..%.} ` ",
"1.1.1.1.1.1.1.<.:.-.*.*.:.2.2.,.=.=.=.%.] I k w * 7 ! #.w.i.y.q.6.1.1.1.1.1.1.<.-.-.*.=.:.1.2.<.-.=.=.%.) I k w * e W *.3.9.2.-.",
"1.1.1.1.1.1.1.<.<.<.<.-.-.-.-.-.%.%.%.+. .) v i : u o.w.w.u.q.4.1.1.1.1.1.1.1.1.2.<.:.-.-.:.-.-.%.+.%.+.O./ b t * p ..3.$.#.>.<.",
"&.&.&.&.&.&.&.&.&.&.&.&.%.+.+.O.[ ` ` ` ` Q n a : h $.e.t.5.-.&.&.&.&.&.&.&.&.&.&.&.&.&.+.+.+.O.` ` ` ` ` / m p : k *.3.o.X.+.&.",
"^ ^ ^ ^ ~ ~ ^ ~ ^ ^ ^ ^ ~ ^ ^ W T J J J J F S a , h ;.i.7.%. .W ~ ~ ^ ~ ^ ^ ^ ^ ^ W ^ ^ ^ W W W R J J J J F x a , a } =.` Q ~ ^ ",
"I I I I I I I I I I I I I m I K F D D D A C k a 7 k *.7.%.[ W I I I I I I I I I I I I I I I I L F D D Z A C z a 5 d _ %.Q I I I ",
"I I I I I I I I m I I I I I I L K K L K D C z a 5 d  .=.[ W W L I I I I I I I L I I I I I I I K L L L F G C k a 5 a [ %.W I I I ",
"I I I I I I I I I I I I I I I I I I W K G C z a 5 d _ +.W m I I I I I I I I I I I I I I I I I I I I I L G Z S a 7 d [ %.W I I I ",
"I I I I I I I I I I I I I W m I I I I L G C z a 5 a / O.W I I I I I I I I I I I I I I I I W I I I I I K D S z a 5 d [ %.^ I I I ",
"I I I I I I I I L P I I L L m W m W I L D Z z a 4 a / [ W I I I I I I I L L I I I I I I L L I I I I W L G Z z a 5 d [ %.^ I I I ",
"I I I I I I I L F F L I F F I I W m W L G Z z a 7 u Q [ W I I I I I I L F F L I I I I L D F L I I W I K G C z a 3 d [ %.W I I I ",
"P L I I I I L F D G F H F F K K I I K F D Z z a 4 a /  .W I I I L P P K G D L I L L I K G G P I L L L L G Z z a 7 d [ %.Q K I I ",
"G F L I I L H A A A G F H P F F L L H A A Z z a 4 u / O.W I I L F D D A A D L L H F P P G D L L F F L P G Z z a 4 d } +.R F L I ",
"A G P L L K D A A A A G H H G G H H G A A Z h y , y L Q Y P L H Z A A A Z F P H Z D H P G A P H G G H T G Z d y > y Y ( J A H P ",
"A A G D b x Z A A A A A G G A A D G A A A B y 5 * * y d D G G G A A A Z S S D D A A G D A A D G G A G G A B 9 4 * = y s Z A G G ",
"B M N M d d s B M M M M M M M M g N N V N q 5 $ # $ $ 4 0 N M B B B N s d d M M N N M M N M N s M M M B M q 5 $ # # $ 5 0 M B B ",
"8 8 8 8 6 7 8 6 5 5 4 = 4 > > 4 > , 6 6 5 , $ # # # # $ > 4 6 8 8 8 6 6 7 6 6 6 , , > > ; = > > 4 5 6 6 5 > $ # # # # $ > 5 6 9 ",
"$ $ $ ; $ * : * & + % + O + + O # # - $ & + + O + + + + & & * * $ $ $ $ $ ; * * # + @ + + + + @ & & & * & & @ @ % + + @ @ # & $ ",
"+ + + + O + % o o o % X X X X % O O + O O O X O O O + O % X % O # + O + + + + + O O X   O + O O o o % % o o X % % X o o O O % % ",
"O O O O O O . . . . . . . . . X   O O O O O X X O O O O X . . X O O   O O O O O O O X X O O O O X . . . . . . . . . . o     o . "
};
