/* XPM */
static char *result[] = {
/* columns rows colors chars-per-pixel */
"64 64 112 2 ",
"   c #4C371A",
".  c #4E391B",
"X  c #553D1D",
"o  c #583F1E",
"O  c #523D20",
"+  c #53411F",
"@  c #5A411E",
"#  c #544122",
"$  c #5C4321",
"%  c #5A462A",
"&  c #5D4A2D",
"*  c #604724",
"=  c #614824",
"-  c #654E2B",
";  c #67502E",
":  c #6C522C",
">  c #614D30",
",  c #6B5433",
"<  c #6E5936",
"1  c #6D5B3C",
"2  c #715A36",
"3  c #785E37",
"4  c #715D3A",
"5  c #75613E",
"6  c #705D42",
"7  c #756344",
"8  c #796543",
"9  c #7E6A47",
"0  c #76654C",
"q  c #78674D",
"w  c #7D6B49",
"e  c #7E6C51",
"r  c #8B6F44",
"t  c #8E7143",
"y  c #907244",
"u  c #9E7F4E",
"i  c #806E52",
"p  c #847355",
"a  c #8A7756",
"s  c #8B7857",
"d  c #84745A",
"f  c #88775C",
"g  c #8C7A5B",
"h  c #907E5B",
"j  c #8C7D62",
"k  c #907F65",
"l  c #9F804F",
"z  c #95825E",
"x  c #98845F",
"c  c #A0814F",
"v  c #A18250",
"b  c #A78D5F",
"n  c #8F8165",
"m  c #8D8268",
"M  c #938366",
"N  c #998661",
"B  c #958866",
"V  c #9B8A65",
"C  c #958669",
"Z  c #958A6C",
"A  c #9B8C6C",
"S  c #96926F",
"D  c #9B8F71",
"F  c #979471",
"G  c #9D9374",
"H  c #9D987C",
"J  c #A88F60",
"K  c #AD9364",
"L  c #A2916E",
"P  c #A49472",
"I  c #A89773",
"U  c #A59977",
"Y  c #AA9976",
"T  c #A19679",
"R  c #A49B7B",
"E  c #AA9D7B",
"W  c #ACA27F",
"Q  c #BFA673",
"!  c #C0A068",
"~  c #C1A674",
"^  c #C4AA77",
"/  c #C6AC79",
"(  c #C8AE7B",
")  c #AB9F80",
"_  c #A4A383",
"`  c #ABA584",
"'  c #AEA986",
"]  c #ADA788",
"[  c #ABAC8A",
"{  c #BBAE87",
"}  c #B2AA8A",
"|  c #BDB594",
" . c #BFB895",
".. c #C5B58B",
"X. c #C2BA97",
"o. c #C3BB99",
"O. c #C9BF9A",
"+. c #CAC09B",
"@. c #C9C7AA",
"#. c #CCCBAD",
"$. c #D4CBA4",
"%. c #D0CEAF",
"&. c #D9CFA8",
"*. c #DAD1A9",
"=. c #D1CFB0",
"-. c #D5D3B3",
";. c #D8D7B6",
":. c #D9D8B7",
">. c #DDDBBA",
",. c #E0DEBC",
"<. c #E2E0BE",
"1. c #E4E3C1",
/* pixels */
"    $ % * * * $ * * * * $ * * * * * * * $ * * * * * $ * * * * $ * $ * * * * * $ = = * * * * * $ * * * * = * * * * * * * $ * $ * ",
"  X @ @ @ # o o @ o # o o @ * @ $ # o o o o $ O o o o o o # @ * @ o $ O O $ o o O o o o o o $ $ @ o o o O O o o o o $ O o $ * @ ",
"      X X         X   . . X o $ O X   X X   X   . . X   . X $ $ o X   . . . . . . . X . . X O * O X . . . . . . X . X   X X o * ",
"  O & - ; ; ; - ; - - ; - - = o   O - ; - - - - ; - ; - - - * o X O * ; : - - ; - - - ; - - = $ . O * : : - - - - - - - - = * * ",
"  - r c c u l l u u u u v y : o X % r v v u u u u u u u u y : o . * r v u u u u u u u u v y : O . = t u v u u u u u u u u t : $ ",
"  - u Q ! ~ Q Q ~ ~ ~ ~ ~ J 3 o   ; v ! ~ ~ ~ ~ ~ ~ Q ~ ~ b 3 o . ; v ! ~ ~ ~ ~ ~ ~ ~ ~ ~ J 3 X . ; v ! ~ ^ ~ ~ ~ ~ ^ ~ ^ J 3 o ",
"  - u Q ..O.o.O.O.X.X.O.O.E 5 o   ; v ! ..X.O.X.O.X.X.O.O.E 5 o . - v ~ ..O.O.X.O.X.X.O.O.W 3 o   - u ~ ..o.o.X.X.O.X.O.O.E 3 O ",
"  - u Q O.@.#.@.@.@.#.%.#.] 8 X   - l ~ O.@.#.#.@.@.%.%.#.} 8 X . - u ~ X.@.#.#.@.@.@.%.#.} 8 X   - u ^ O.@.%.#.@.@.#.=.#.` 8 $ ",
"  - l ~ o.@.;.-.#.#.;.>.#.] 8 X   - u ~ O.#.;.-.#.@.;.;.#.` 8 X   - u ~ O.#.-.-.%.@.-.;.%.` 8 X . - u ~ o.#.-.;.@.@.;.;.%.` 6 $ ",
"  - u ~ +.=.;.;.%.%.-.>.=.} 8 X . - c ~ O.%.;.;.%.%.;.;.-.} 8 X   - u ~ O.=.;.-.=.%.-.;.%.} 8 X   - v ~ O.=.;.-.%.%.-.;.=.} r @ ",
"  - u / $.;.%.%.-.-.%.=.;.| r X   - u / $.;.%.%.;.;.%.=.:. .9 X   - u / $.;.%.%.-.;.=.=.>.| 9 X   - u / $.;.=.%.;.;.%.-.;.| 8 X ",
"  - u / $.;.%.%.-.;.%.=.;.| 8 X . - u / $.;.%.%.;.-.%.=.;.| 9 X   : u / $.;.%.%.;.-.=.-.;...9 X . - c / $.;.%.%.;.-.%.%.>.| 8 o ",
"  - u Q O.=.;.;.%.#.-.;.=.} 8 X   - u ~ O.%.;.-.#.%.-.;.-.' 8 X . - u ^ O.=.;.;.%.%.-.>.=.} 8 o . - u ~ O.=.;.;.%.%.-.;.%.} 6 $ ",
"  - u Q O.-.;.;.%.%.;.;.-.} 8 X X - u ~ +.-.;.;.%.%.;.:.-.} 8 X   - u ~ O.=.;.-.%.%.-.>.=.} 5 X   - u ~ O.=.;.;.%.%.;.;.=.} 5 @ ",
"  - u ^ $.;.%.%.;.-.=.-.;.| 9 X   - u / $.;.=.%.-.;.%.%.:.| 8 X   - u / $.;.%.%.-.-.%.%.>.| 9 X . - u / $.;.%.%.-.;.%.=.-.| r o ",
"  - u ^ $.:.%.%.-.-.#.-.>...i X   - u / $.;.%.%.-.-.%.-.,.o.w X . - u / $.>.%.%.;.;.%.-.,.X.i .   : u / $.;.%.%.;.-.%.-.>...i o ",
"  - u ~ O.=.;.-.%.%.-.,.<.X.8 X   ; l ~ +.=.;.-.%.%.-.,.<.X.8 X   - l ~ +.%.;.-.=.=.:.>.<.X.9 X   - u ~ O.=.;.-.%.%.-.,.,.X.9 o ",
"  - u Q O.-.>.>.%.%.-.,.<.X.r X   - l ~ +.=.>.>.%.%.-.,.<.X.r X   - l ~ +.%.,.:.=.#.-.>.<.X.9 X . - u ~ O.%.,.>.%.%.-.,.,.X.r o ",
"  - u ^ $.>.,.>.:.-.%.%.,.X.9 X   ; l ^ $.>.<.,.:.-.#.-.,.X.9 X . - c / $.>.<.,.:.-.#.-.>.o.9 X   : u / $.>.,.,.>.%.%.-.>.X.8 o ",
"  & u / &.,.>.>.,.,.%.%.>.X.9 X   - l / &.,.>.:.,.:.%.-.>.X.w X   - c / &.<.>.>.,.>.%.-.>.o.9 X . - u / *.,.,.:.,.>.%.%.>.X.9 o ",
"  - u / &.>.=.=.:.,.:.,.<.X.i X . - l / &.>.=.=.:.,.:.>.<.X.9 X   - c / *.>.=.%.:.,.:.,.<.X.9 X   - u / *.,.-.%.>.>.:.>.,. .9 o ",
"  - u / &.>.-.=.:.,.<.<.<.o.5 X . - l / &.>.=.=.:.<.<.<.<.X.9 X . - c / *.:.%.%.:.<.<.<.1.X.9 X   - u / &.,.%.%.:.<.<.<.1. .9 o ",
"  - u ( &.,.:.:.,.,.<.<.<.o.9 X . - l / &.<.>.:.>.<.>.<.1.X.9 X   - u / &.,.:.:.,.,.,.<.<.X.9 X   - u / &.,.>.:.,.,.,.<.<.| 9 o ",
"  - u ^ $.>.,.,.,.,.,.<.<.X.9 X . - l ~ $.>.,.<.,.,.<.<.<.X.9 X   - c ^ $.>.,.,.,.,.,.<.1.X.9 X   - u / $.>.:.,.,.,.,.<.<...i @ ",
"  - u Q O.-.:.,.,.,.,.,.1.X.9 X   - c ~ +.=.:.<.,.,.,.<.1.X.9 X . - c ! +.-.,.,.,.,.,.<.<.X.9 X   - l ~ O.=.>.,.,.,.,.<.<.| 9 @ ",
"  & u Q O.=.>.,.,.,.,.<.1.X.9 X   - c ~ +.-.>.,.,.,.,.<.1. .9 X   - c ~ +.%.:.,.,.,.,.,.1.X.9 X   - l ~ O.-.>.,.,.,.,.<.1.X.9 @ ",
"  - u ^ $.>.,.>.,.,.,.<.<.X.9 X . - l ^ $.>.>.<.,.,.,.<.<.X.9 X   - c ^ $.,.,.,.,.,.,.<.1.X.9 X   - l / $.:.>.<.,.,.,.<.<.| 9 o ",
"  - l ( *.1.1.<.,.<.<.1.1.X.9 X   - c / *.1.<.<.<.<.<.<.<. .r X . - c / *.<.<.<.<.<.<.1.1.o.9 X X - c ( *.1.<.<.,.<.<.<.1. .r o ",
"  - u ( *.1.1.<.1.1.1.1.1.o.i X   : l / *.1.<.<.<.<.1.1.1.o.i X   : c / *.1.1.1.<.1.1.1.1.O.i X   - c ( *.1.1.1.<.1.1.1.1.o.w @ ",
"  % t K { o. .| X.X...X.o.E 3 o . = t K { o.X.X.X.X.X.o.o.W 5 o   = t K { o.o.X.X.X.X.o.o.E 3 o   = y K { X.o.X.X.X.X.o.o.E 5 @ ",
"  # : 3 9 i 9 r 9 9 9 i w 5 ; o . @ : 3 9 9 9 9 9 r 8 w w 5 - @ X X : 3 5 i 9 9 9 9 9 9 9 5 - @ X O : 3 5 r 9 i 9 9 9 9 9 5 - $ ",
"    O @ X X X X X o X X X # * @ . . X @ X X @ X X X X X X @ # $ X   X o o X o X X o X X X @ $ #   X X X X X X X X X o X X @ $ $ ",
"                          X @ # O   .       X             X # $ X           X             X # $ X                         X @ $ ",
"  O % & & & & & - > > - & - * @ X O % & & & & & & > > - & - * $   O % & & & & & - > > - & % $ @ X O % > & & & - & - > - & & * $ ",
"  & 7 p d p e d s f h g p 8 - o   % 8 p p i i p g g h g p 8 - O   % 7 p p p p p s g g s d 8 , @   % 7 d p p p p f g h g d 8 ; @ ",
"  & i B B A D G I U I P D s < o   & i B C A G G I Y Y P A s < o X & p C B A A G T I Y P A s < X X & i B C Z D G U U I P L a < $ ",
"  % q m C H ) [ ` ) E Y L h < o X % e j Z G _ [ _ ) E Y P h , o . % 0 j B G _ [ _ ) E Y L h < @   % 0 k C G _ _ ` ) E I L g < @ ",
"  % 0 j k F ) [ [ ] E Y I z < o   % 0 j m Z _ [ [ ] E Y P z 2 o . % 0 j M D _ [ [ ] ) E I z < X   % 6 j C G _ [ [ ] E Y I z 2 @ ",
"  % 7 j j k S _ [ [ _ ) Y B 2 @   % 0 j j k S ) [ [ _ ) Y x 2 X O % 0 j j j D R [ [ _ E Y x 2 o X % 0 j j k D _ [ [ ` E Y x 2 @ ",
"  % 0 e e j j Z _ ) H T Y x 2 X   % 0 e e j k Z _ ) H T E N 2 @   % 6 d d j j S ) _ H T Y N 2 o   % 0 p e j k D _ _ H T Y x 2 @ ",
"  O 1 q e f f j j m k C P N 2 o   % 1 e e f j j j m k C P N 2 X   % 1 q p d j j m m j C I x 2 o   # 1 w p d f j j m j C I M < @ ",
"  % 5 d m m m j j g f M P N 2 o   % 6 p j m j j j g j j P N 2 o . % 6 p j M j j j j f M P x 2 @   % 7 d j M m j j j s M P N 2 $ ",
"  & d P U E R I L L M C P x 2 o   - s P U E R T L L M C P N 2 o   - s L U R R U L L M C P x 2 o   - a L U R T T P A M C I N 2 @ ",
"  & g Y E ` ' ` E L L V P M 2 @   > g I E ` ' ` E L L V P N 2 X   > g Y E ` ` ` Y L A A P M 2 o   > g I E ` [ ` E P V A I h 2 $ ",
"  % e C A R [ [ T D P P P g , o   & e M A R [ [ T L P P P g 2 + X % e M D T [ [ R L P P P g < o   & e C D ) [ [ U L L P L g , $ ",
"  % 0 j C G _ _ D A I Y A s , o X % 0 j C G _ _ D A P Y A a , @   % 0 j C G _ _ D A P Y A a , o X % 0 j C G _ ) D Z Y I A a ; * ",
"  % 0 j C G G G j C U R M e , o   % 0 j C G T A m C R R M e ; +   % 0 j C D G D j M R R M e ; @   % 0 j C D G D j M I R M i ; * ",
"  % 7 f m C C M k C E R D p , #   % 0 f m C C C j C E E Z p ; @ X % 0 j C C C C j Z E E D i , O   % 0 j C C C M k Z E E A p , O ",
"  % 0 j j f j j G E E E E B < X X % 0 f j j f M G R E E E M < @ . % 0 f j f f M G E E E E B 2 X   % 0 j j f j j G E E E E M < @ ",
"  % e j k h j C E W P T W A 4 @   & e j j j k C E W I L W A 1 @ . % i k k j j C E W P P W A 4 @   & e j h k j C E W T I W A 4 @ ",
"  > f P L L L U W R Z C R Z 4 X   > g P L L L I ` R Z B H Z 4 o . - h L L L L I W E Z B H Z 4 X X > g P L L D I W E C C R B 4 @ ",
"  - g P Y I P P U G C C H Z 4 o   - g P Y I L P U G C C ) D 4 o   > h P Y I P P U G m Z H S 4 o   > g P Y I P I R G C m H Z 4 @ ",
"  % e Z P L C j k m D ) [ F 5 +   & e A P P C j j C D _ [ F 4 O . & e C P L C k n C D _ [ F 5 o   % e C I L C j k m Z ) [ F 5 $ ",
"  % q M P P j p e j F _ [ F 5 +   % q M P P j d p j G _ [ F 4 o . % q M P T k i p j D _ [ F 1 + X % q M P P j p j j F _ [ S 4 @ ",
"  % e Z E U j p j j Z G U M < X X % e A E U j d d j Z G _ j < O   % i A R U j d d j Z G T m < X   & i A E U j p e j A G H n < $ ",
"  & p D E U Z m j j M C M d , @   & p A E U A j j j C C k d , O   - p A ) T Z j j k C m C s , o   & p A E U Z m j k M Z B p , $ ",
"  > d D G G U U T Z k f j i , X   > d D G T T U L A n f f i ; @ . > d D L G T U P V M f j e ; @ . & s D L T I R G D k j f i ; $ ",
"  & p D A G E W Y L C k k i , O   & d Z A P E E Y L B n M d , X . & d Z D L E ) Y L C k M p , o   & d Z D G R E Y L C k k i , $ ",
"  % e j Z D P G D L L I E B 2 o   & e m C D T T A A A I E M 4 @   & e k Z D T L A A L P R B 4 o . & e k C D P G D L L I E B 2 $ ",
"  % 6 i s g g f p s h V A h 2 O X $ 7 e s f g s a s z V A z < @ X % 6 i s g g f a s z V A g < @ X % 6 i f g g a i s h V A g , $ ",
"O * - ; , < , < , < 2 4 4 2 = $ $ $ ; , , 2 : < < < 2 2 1 < - $ @ % ; , , < < , , < < 2 4 2 - $ O * - , < < : < < < < 1 4 < = $ ",
"$ $ $ O + + $ @ @ + @ # @ @ # $ @ # $ $ @ $ @ * @ @ @ @ # + + @ @ @ + # O $ $ $ # # @ + o @ # # $ $ $ $ @ * @ * @ @ $ $ @ @ $ $ ",
"O O X X + + $ $ + X O     O X X + + @ * $ $ @ $ $ $ * @ + + O X X X O . X + O * + +   X X   X + + # $ $ * @ @ * @ * $ $ + + X . ",
"        + + $ # # .   O         + # @ $ * = * $ = $ = @ + +           . . # $ @ # . O         . . O # * @ * = @ * $ $ # + +     "
};
