/* XPM */
static char *result[] = {
/* columns rows colors chars-per-pixel */
"64 64 226 2 ",
"   c #2C340B",
".  c #32360D",
"X  c #3A3B0F",
"o  c #37390E",
"O  c #353611",
"+  c #343912",
"@  c #3C3A14",
"#  c #3C3D1A",
"$  c #3C3618",
"%  c #373214",
"&  c #3F3E20",
"*  c #443315",
"=  c #423D15",
"-  c #4B3C15",
";  c #45351A",
":  c #4A361B",
">  c #453D1A",
",  c #4B3D1B",
"<  c #513D1D",
"1  c #403D21",
"2  c #4D3D21",
"3  c #4F3F28",
"4  c #523E22",
"5  c #3D411A",
"6  c #3D4114",
"7  c #444116",
"8  c #4B4216",
"9  c #45421D",
"0  c #4B421C",
"q  c #464A1A",
"w  c #4C4A1A",
"e  c #534317",
"r  c #54441B",
"t  c #58471A",
"y  c #554A1B",
"u  c #5B4B1C",
"i  c #54521E",
"p  c #604F1D",
"a  c #644F17",
"s  c #63521E",
"d  c #6C5619",
"f  c #775A1C",
"g  c #454322",
"h  c #4B4422",
"j  c #4C4A25",
"k  c #4B452B",
"l  c #464C26",
"z  c #544523",
"x  c #5A4522",
"c  c #554A24",
"v  c #5B4B25",
"b  c #54442A",
"n  c #5A442B",
"m  c #544C2B",
"M  c #5C4D2C",
"N  c #4D5423",
"B  c #54502D",
"V  c #5C512D",
"C  c #595522",
"Z  c #4D4939",
"A  c #454734",
"S  c #5C4735",
"D  c #534B32",
"F  c #5E4C31",
"G  c #524C3C",
"H  c #5A4635",
"J  c #5D5232",
"K  c #5C553A",
"L  c #5A5738",
"P  c #624E24",
"I  c #624D29",
"U  c #60462D",
"Y  c #635323",
"T  c #655A22",
"R  c #6B5B25",
"E  c #63532A",
"W  c #6B5B2C",
"Q  c #67582A",
"!  c #715B29",
"~  c #7B5D2E",
"^  c #614632",
"/  c #644B35",
"(  c #644C3C",
")  c #694E3C",
"_  c #6B4E34",
"`  c #635434",
"'  c #645837",
"]  c #6C5B34",
"[  c #63553B",
"{  c #6A553D",
"}  c #655A3B",
"|  c #6B5C3D",
" . c #6B5535",
".. c #7C5E30",
"X. c #7B5F38",
"o. c #725D3C",
"O. c #5D6435",
"+. c #5A6524",
"@. c #6C6226",
"#. c #676327",
"$. c #746728",
"%. c #7D662C",
"&. c #7C6627",
"*. c #746332",
"=. c #7A6633",
"-. c #7D6837",
";. c #73633B",
":. c #7A633C",
">. c #7C6A3B",
",. c #766933",
"<. c #766B33",
"1. c #544F43",
"2. c #5B4E44",
"3. c #565243",
"4. c #5C5445",
"5. c #5C544B",
"6. c #5E5849",
"7. c #595654",
"8. c #5E5951",
"9. c #644E42",
"0. c #665242",
"q. c #6D5543",
"w. c #665C45",
"e. c #6C5D42",
"r. c #61564B",
"t. c #645C4D",
"y. c #6A5D49",
"u. c #6D5648",
"i. c #715C43",
"p. c #755D4A",
"a. c #775A42",
"s. c #655D52",
"d. c #6D6145",
"f. c #6E6249",
"g. c #746345",
"h. c #7D6D45",
"j. c #74654A",
"k. c #79644B",
"l. c #76694D",
"z. c #7A6A4D",
"x. c #776A45",
"c. c #6A6356",
"v. c #746652",
"b. c #776A52",
"n. c #7A6C54",
"m. c #7B6F59",
"M. c #7A6754",
"N. c #7E7255",
"B. c #7E715A",
"V. c #7E704F",
"C. c #706D64",
"Z. c #805E32",
"A. c #836833",
"S. c #816C3A",
"D. c #8A6B3D",
"F. c #866833",
"G. c #867339",
"H. c #887030",
"J. c #8C6C45",
"K. c #836C4B",
"L. c #8B6E49",
"P. c #906E43",
"I. c #82724D",
"U. c #8A724C",
"Y. c #8B7A4C",
"T. c #857544",
"R. c #967849",
"E. c #816F54",
"W. c #837355",
"Q. c #897356",
"!. c #8C7B55",
"~. c #84745C",
"^. c #89765D",
"/. c #86795B",
"(. c #897A5E",
"). c #907F5B",
"_. c #8C7C62",
"`. c #867960",
"'. c #917F65",
"]. c #9D844B",
"[. c #94825D",
"{. c #9C8757",
"}. c #A18648",
"|. c #A78A56",
" X c #AD925D",
".X c #A7925C",
"XX c #B6995C",
"oX c #8F8164",
"OX c #8B8669",
"+X c #928365",
"@X c #9A8662",
"#X c #9C8965",
"$X c #95866A",
"%X c #96886C",
"&X c #998A6D",
"*X c #9B8D72",
"=X c #968D70",
"-X c #9E9175",
";X c #9A9679",
":X c #A18D6A",
">X c #A28D65",
",X c #A5926D",
"<X c #AD9467",
"1X c #B19561",
"2X c #B59B6A",
"3X c #BA9C65",
"4X c #A19478",
"5X c #A39B7E",
"6X c #A59975",
"7X c #AEA07C",
"8X c #BDA470",
"9X c #C4AA74",
"0X c #CBB27A",
"qX c #A79C81",
"wX c #AB9E80",
"eX c #ABA385",
"rX c #A9A386",
"tX c #B5AC8B",
"yX c #BFB58F",
"uX c #B8B296",
"iX c #B8B395",
"pX c #ABAB93",
"aX c #C4BB94",
"sX c #C8B98C",
"dX c #C2BEA1",
"fX c #CBC198",
/* pixels */
"% [ wXdXwX-X*X*X4X4X*X&X$X@X+X$X+XW.b [ qXdXrX-X*X*X4X4X*X&X$X@X+X@X+X+X+X+X+X+X+X%X&XW.b [ rXdXeX-X*X*X4X4X*X&X$X+X+X+X+X+X+X+X",
"* [ qXuXqX*X%X%X*X*X*X'.'.'.'.'.oXb.b ` 5XuXqX=X%X%X*X*X&X'.'.'.'.'.+X'.+X_.+X+X'.+X$XW.b K ;XuXqX*X%X%X&X*X&X'.+X'._.oX+X+X+X+X",
"; [ $XqX$X_._._._._._.`.`.^.(.^.^.j.b ` %XqX$X_._._._._._._.`.`.^./._.^.(.(.(.(.`.`.`.j.b [ %XqX%X_._._._._._._.(.^.(.^.(.(.(.(.",
", J _.=X_.~.~.~.~.~.~.~.^.^.^.~.B.f.m J _.=X_.~.~.~.~.~.~.^.~.~.^.~.~.~.^.~.~.~.^.~.m.f.v J _.*X_.~.~.~.~.~.~.~.Q.Q.~.^.^.~.~.~.",
"0 ` /.=X_.~.~.~.^.~.~.~.~.~.~.~.B.f.m ` ^.&X_.~.~.~.~.~.~.~.~.~.~.~.~.~.~.~.^.~.^.~.m.y.m ` /.%X`.~.~.~.~.~.~.Q.L.L.~.~.~.~.^.~.",
", J /.=X_.~.~.~.~.~.~.~.~.~.~.~.W.i.n J (.&X_.~.~.~.~.~.~.~.~.~.^.~.~.~.~.^.~.~.~.~.E.g.x L (.%X'.~.~.~.~.~.~.~.J.J.W.^.^.~.~.~.",
", ` _.*X_.~.E.~.~.~.~.m.~.~.B.m.L.X.x L _.*X_.~.~.`.~.~.~.E.~.`.~.~.B.B.~.~.B.B.^.~.L.X.x ` _.*X_.~.~.~.~.m.~.E.E.E.~.~.^.~.m.m.",
", ` oX*X_.E.m.m.~.~.B.m.W.W.z.K.J.Z.v ` _.*X_.~.Q.Q.~.~.m.m.~.~.^.W.E.n.~.B.B.B.Q.U.D...x L oX*X_.~.~.~.m.~.~.~.E.E.E.~.W.W.m.m.",
", ` (.#XR.J.n.B.~.~.m.E.J.D.-.-.D.Z.v ` /.&X_.Q.L.L.W.^.m.m.~.~.B.E.L.L.E.m.~.Q.L.D.F.! x J (.%X^.E.~.~.~.~.B.W.L.K.n.E.L.L.n.m.",
", J /.@XP.D.K.E.W.W.E.K.D.F.%.%.F.~ x ` ^.$X_.Q.J.D.U.W.~.E.W.~.B.z.D.D.K.E.W.U.J.F.A.R r ` /.$X`.m.W.Q.Q.W.E.K.D.D.K.K.D.D.K.E.",
": F W.[.T.A.D.P.J.P.J.D.F.%.%.%.A.! x M W.+X_.I.A.A.D.L.m.E.L.L.W.z.-.A.D.J.P.D.A.A.%.R r U W.+XB.B.L.J.P.J.J.D.A.A.D.D.A.F.D.J.",
": n g.K.] ! ~ Z.Z.Z.Z.~ ! R R W R P < b g.E.n.x.] ! ~ X.p.g.Z.:.g.d.W W ..Z.A...! W R P < b k.m.j.g.X.Z.Z.Z.Z.~ ! ! ~ ..! ! ~ Z.",
": < n v v z x x x v x x x < x r r < : : z F F M x t x v v M v x v m z z v v v x y x r < : : n M m z v x x v v x r z x t < r x 4 ",
"v n b 4 , , 4 n ' } ' ` F F F J / M n b 3 4 > ; , < z v z r z h r z z r r z J M z r < < 4 2 ; 2 ` | ] ` ` J ` M / M / ` U M U U ",
"k.g.| F h 9 M x.-X;X&X_././.W.W.^.W.W.z.i.U > * , y R @.T C v p C Y p u y Q n.I.` u t v ` F ; m OX7X X|.+XoX/././.^././.W.E.Q.W.",
"`.~.z.| l j x.&XtXaX5X-X&X%X+X+X$X%X+X(.W.| > * r R $.$.R d s s s Y W Q P Q I.K.Q u u Y  .F $ J 6XsX8X2X,X*X&X%X%X$X$X+X+XoX+X+X",
"^.~.m.d.N O.=XtX9X8X,X$X_._._.`._._.^.(.~.d.h 9 T $.@.R s s P u u E x.x.E y E E x t t r x 0 @ V .X9X8X&X+X_._._._.`.`.`.^.`.^.B.",
"~.~.m.d.N O.;XsX8X1X#X_.~.~.~.~.E.~.~.~.~.g.j 8 @.$.T p s s p t t v | g.I y v v e r 8 e c 0 7 c G.|.@XOX`.~.~.~.~.B.m.m.B.m.n.n.",
"m.m.l.} l B =X7X,X{._.~.B.B.~.~.~.m.m.m.b.| g 8 T R T s p u u t t t v c t v | | c - - c ` V g 7 c ] W._.`.~.B.m.m.m.m.n.m.n.b.j.",
"n.b.j.' 9 B /.;X%XoX(.~.B.B.~.B.m.m.n.v.g.' g 7 u R W W Y u t e e r x M v ` | w.M r - c w.} h @ @ h e.m.B.m.m.m.n.m.m.m.n.b.g.g.",
"l.k.g.[ 9 B /.&X&X+X^.~./.B.B.m.m.n.z.g.g.} 0 7 y W I.h.E r t e r v | z.l.e.v M w.} z h 4.3.g @ > h / u.s.c.b.m.l.l.m.n.l.j.g.g.",
"' ' ' J 0 m /.%X+X_.^.~.~.B.m.m.n.b.j.j.j.} g 8 E >.!.W.E r e e 8 M l.^.B.c.F F g.f.M M 4.3.g @ > , 3 D 1.3.w.w.} } d.w.} ' ' ' ",
"h 0 h 9 0 V W.+X_././.~.B.B.m.n.l.j.b.b.j.' 0 j x.!._.z.E e e e e V j.B.m.n.j.f.j.g.g.y.f.[ 9 @ + + + @ 1 & 5 9 g g h j h h h h ",
"7 @ @ @ = B I.oX`.~.~.B.m.n.n.b.j.j.b.b.j.[ 9 j g.~.^.E.] I E v t M f.m.m.n.j.j.g.l.n.n.j.K 2 % . . 6 7 8 - 6 X = 7 = 7 7 = 7 = ",
"8 8 @ @ . j l._.(.~.m.n.m.n.l.f.b.b.k.j.s.3.g > j L b.~.n.z.z.;.x c f.B.B.f.J M d.b.z.f.s.1.1 % . q C @.d d u y u u y u u u y y ",
"r r = @   5 K z.~.~.B.B.m.n.l.l.b.b.j.y.8.1.g $ @ h | z.W.~.^.n.' ` f.m.m.f.M M y.n.j.y.4.Z $ O 7 i @.%.H.A.,.*.T u p p u Y E Q ",
"r 8 - * @ @ 5 B l.`.`.~.m.m.N.l.l.g.s.8.7.1.k , > 0 h B d.z.~.~.n.l.n.n.l.g.| } g.g.s.3.H h $ 9 N +.#.,.Y.[.!.K.E u t u t Y x.z.",
"- e z 0 > o . 9 } l.l.j.f.f.f.d.| | 4.3.3.K m r z 0 = 0 V d.z.W.W.~.n.v.g.g.g.d.y.y.4.G h , $ q +.#.#.h.[.#X$XW.] v t r v } b.^.",
"- z } } h = = , m M m l l l q c M Y E M V V Y Y Y y 0 9 9 m d.k.z.j.c.s.y.f.t.8.8.4.D 3 , > @ @ q Q V.+X$X+X_.~.l.| v v | l.m.B.",
"z M j.j.M x c x z 2 ; # 5 5 7 e u s p p p p s s s u e - = 0 V ' | ' 3.3.0.} 5.5.5.3.[ J ` J m h r ` W.+X+X_.(.^.B.f.M v g.m.n.n.",
"f.g.j.j.j.g.| ' / n 2 > 9 8 a d s s s p p u u u r r - - - 9 9 h z b b b z n S ( ( u.~.oX(.~.j.w./ / { k.~.(.^.~.B.j.v M g.m.l.g.",
"n.b.j.g.b.b.g.q./ H 4 8 8 p f Z.%.*.T p u u t e r 8 - - z r = > h z h z I ] p.M.p.M.$X-X*X+X^.n.u.) ) { d.b.~.`.B.f.J J g.b.l.j.",
"j.j.g.g.k.g.q.) n 4 - e d &.f A.Y.W.] u u e r t r r 8 r ` ` r , ` ` x E P. X7XrX*X$X%X%X'.(.~.B.n.j.i.[ m L z.~.B.n.f.f.j.v.b.n.",
"d.i.i.i.i.{ / 3 2 , - p H.G.H.G.!.I.Q u v E M v r r v V ` ` v M | | n ]  X0XyXuXqX*X+X_.^.~.~.~.m.b.k.' 9 9 } l.v.n.n.n.j.y.b.n.",
"s.5.0.) ) / n 2 * * e R ].XX{.Y.=.Q u I ;.z.j.} r z } e.v v w.d.g.| / p.7XaXtX5X-X+X_./.^.~.B.n.l.j.g.} 0 # g m ( q.g.j.t.t.j.j.",
"4.4./ / / U x , : < Y =.}..X,X(.;.I t I z.`.~.j.J M f.j.F F g.n.f.u.( M.qXuX5X*X+X_.^.~.~.B.n.l.l.j.g.[ g # 7 y M /  .e.4.4.' | ",
"Q Q E I P u t 4 3 ) a.h.-.>.[.+XW.;.v M k.(./.N.j.f.l.g.f.f.j.j.t.r.( p.=XqX*X$X_.^.~.~.~.m.k.j.v.v.s.1.1 8 T R T I Y I v v v v ",
"s s s p u u e x ^ a.E.n.*.;.W.oX(.z.` Q l.~.~.m.n.l.e.e.l.n.g.t.r.5.^ q._.-X+X_.^.~.~.B.b.l.l.k.b.v.t.1.z i @.$.R s p u t t t t ",
"u t u t u e < < ^ q.M.m.N.V.~.`.~.b.o.i.b.B.z.k.k.e.M M | j.t.s.9.S b ` /.$X+X(.^.~.B.n.l.j.b.b.j.p.0.[ #.@.R T s s p p p u u u ",
"M v r t v x e < 4 ^ y.f.j.b.B.B.B.n.l.l.n.n.l.g.l.| E M | t.3.Z H 3 0 M g.B.W.W.W.B.B.N.k.j.b.b.j.o.)  .T.>.R T ! ] Q Y P u p u ",
"j.} r z | } z - , , h h j J l.B.B.m.N.n.n.n.n.n.b.l.d.| t.3.A > $ @ , h z L d.k.k.b.W.B.m.z.l.j.g.e.) a.!.!.W E x.K.n.;.I t t t ",
"B.g.c z d.g.z - r 8 = $ O g L f.f.f.b.n.n.n.n.v.j.d.} K 3.G B l g 9 9 > @ 9 V ' } ;.m.~.m.z.g.g.d.q.^ u._.!.] T l./.`.z.E r x M ",
"m.f.M z | | c r / E - = . . 5 9 g D d.k.j.l.b.d.O.N l 9 5 B l.N.b.} h @ > > g 0 0 B j.B.b.j.g.f.t.4.b [ /.!.Q V j.~.^.z.V c | j.",
"m.f.J V | e.I M e.e.D > @ X X X @ w V ' ' ' ' B q q j m m } /.%X_.b.J j m z 9 + + 5 L d.} ' ' ' 3.G h M x.g.v v d.m.B.g.x c f.B.",
"B.b.e.| g.i.| | t.6.4.G c y y u u u w 9 5 6 6 @ @ N l.oX/./.`._._.~.j.f.f.w.g + . + # 5 g 9 9 h h 3 2 h M z 9 h | k.z.} y b f.B.",
"b.b.g.d.e.f.f.y.4.4.6.K Y s s R T v 8 X . . q j m } OX4X*X+X`.~.~.B.B.m.n.f.D & .   O > j B B B J ` F ` V V m B ' i.i.{ z v f.n.",
"j.g.g.f.6.5.8.r.` V E Q Y s s s s u u 8 . q G.].!._.&X*X+X`.B.B.m.m.m.n.b.f.4.A + O 1 ( z./.(./.(././.!.W.W.W.z.{ ) ) / ^ / i.j.",
"z.x.;.d.v.v.t.K v s T s s u u u u u u w o C {.2X:X%X%X'.`.m.m.m.n.m.n.b.f.y.3.Z & g  .K.+X*X-X-X&X$X%X$X+X+X+X^.p.) ) ) ( 9.y.e.",
"(.I.] ..].{.;.Y Y s s s t u t t y t u 8 @ B !.,X+X_._.~.m.m.m.B.m.m.b.g.t.1.A g 3  .R. X>X+X'._._._._._._.(._.^.m.p.i.y.r.5.5.5.",
">X[.:.-.}.}.S.W s P E E E v t t V v t - = z n._.`.~.E.E.n.n.v.v.v.j.i.i.r.1.h h a.^.1X1X#X_.~.~.~.~.~.E.E.~.E.B.n.b.j.g.r.s.C.C.",
"3X1X[.Y.-.=.h.g.Y V | l.z.e.c c e.| c - - r [ p.n.m.n.k.j.j.s.t.u.9.) ) 9.S h ` *XeX,X@X(.(.~.~.B.m.m.m.k.z.m.n.b.g.g.e.) v.;XpX",
"9X2X,X(.;.] n.z.M v g.B.^.k.' V | e.J v r z S 9.y.d.i.i.i.q.r.2.^ ^ ^ ^ _ n - } 5XtX-X_.^.^.~.~.m.n.n.v.j.l.b.b.j.g.f.0.H k.eXaX",
">X,X&X+XE.n.~.z.M v f.B.B.n.v.} M M e.f.| [ 4.2.S M / ) ) ) ( ^ 4 < P P P t > L OX4X$X^.~.~.B.B.B.n.v.l.b.b.l.g.x.f.t.1.1 V .X0X",
"W.W.Q.~.W.~.~.g.v m f.B.B.m.B.f.M M f.b.j.y.r.1.b b U ^ / _ _ U < e u p u t > c z.^.b.l.B.~.m.b.n.b.g.j.v.v.g.q.' K G A O q G.|.",
"j M [ a.k.k.z.o.z v l.~.B.n.l.j.y.g.g.f.s.r.r.( S ^ < < P Y E P u t t t t t 8 z { { m L l.m.b.j.j.g.g.j.s.s.0./ h g # +   @ Y W ",
"L O.o.a.o.| } M , 0 } l.n.l.j.g.b.n.v.y.4.2.( ) _ U r t p s s Y Q E u t r e e < n b > h K d.| ' | | ' [ 4.2.( / J m j 9 l h h k ",
"qX4X1XR.o.S h 9 @ = 9 M d.j.g.g.j.j.s.6.D D } o.! f a u s u t V g.g.Y e t r t r z 0 , > h h g m / F h h S ( | k././.~.N.V.l.6.1.",
"aXsX9X1XK.q.m m m m j m [ | } ' ` K G G m M | <.A.&.R p u u s  .g.g.` x r r v v r , b 2 > # @ > S ( J V { p.k.W.$X;X*X%X$X/.c.7.",
"0X9X2X&X+X(.W.N./.N.j.w.[ / z 9 5 6 # g F ] <.<.U.L.Q u u I x.g.W E g.w.c c e.| v r n n h > @ 0 J j.~.oX_.'.(._._._._._._.B.8.7.",
"XX1X#X+X$X$XoX$X$XOX~.b.q./ m g 5 +   9 ;.U.T.].[./.;.Y t E z.b. .` l.j.` J e.} M v ( / z , > m :.).&X4X*X+X+X_.~.~.B.W.B.v.8.1.",
">X@X(.~.B.`.`._._.^.B.n.g.e.y.w.} m + w R. X{.+X+X(.W.;.v E k.W.l.v.n.n.j.| M m ` | i. .z z F >.|. X:X$X_.(.(./.~.m.j.z.B.f.B & ",
"+X_.~.m.b.m.B.`.~.~.m.l.g.l.n.n.k.' 5 N ].2X,X%X+X+X_.z.I Y l.~.B.m.m.m.m.f.F v | g.g.| M J b.@X X1X@X_.^.~.^.B.b.b.j.l.b.d.g + ",
"+X_.^.B.m.m.B.B.m.n.k.g.g.g.k.g.g.' 9 N [.:X#X+X_.`.^.l.V v l.m.m.m.m.n.v.g.g.d.g.g.g.| / p.;XeX,X@X(.(.~.~.B.B.j.k.b.b.l.' 5   ",
"+XoX_.B.B.m.n.n.n.n.g.g.g.g.g.g.g.' g B N.&X$XoX^.~.^.z.V V f.m.m.n.n.b.j.l.n.n.g.g.p.i.( M.tXiX4X_.^.^.~.~.B.b.g.j.n.n.l.` 5   "
};
