/* XPM */
static char *result[] = {
/* columns rows colors chars-per-pixel */
"64 64 49 1 ",
"  c #41CFD2",
". c #2FCBCD",
"X c #2FCBCE",
"o c #1AC5C8",
"O c #19C5C8",
"+ c #1AC6C9",
"@ c #1BC6C9",
"# c #1AC5C9",
"$ c #1DC6C9",
"% c #43D0D2",
"& c #44D0D3",
"* c #4ED3D5",
"= c #3ACED0",
"- c #28C9CC",
"; c #2CCACD",
": c #1CC6C9",
"> c #1FC7CA",
", c #81DFE1",
"< c #7FDFE1",
"1 c #6DDADC",
"2 c #4DD2D5",
"3 c #5AD6D8",
"4 c #20C7CA",
"5 c #42D0D2",
"6 c #47D1D3",
"7 c #39CDD0",
"8 c #32CBCE",
"9 c #3FCFD1",
"0 c #3DCED1",
"q c #3BCED0",
"w c #33CCCE",
"e c #57D5D7",
"r c #7EDFE0",
"t c #75DCDE",
"y c #78DDDF",
"u c #61D7D9",
"i c #52D3D6",
"p c #48D1D4",
"a c #7ADEDF",
"s c #77DDDF",
"d c #80DFE1",
"f c #5DD6D8",
"g c #23C8CB",
"h c #2DCACD",
"j c #26C9CB",
"k c #24C8CB",
"l c #2BCACD",
"z c #2ECBCD",
"x c white",
/* pixels */
" .XXXXXXXXXXXXXXXXXXXXXXXXXXXXXXXXXXXXXXXXXXXXXXXXXXXXXXXXXXXX. ",
".oOOOO++@@@@@@@@@@@@@@@@@@@@@@@@@@@@@@@@@@@@@@@@@@@@@@@@@@@@@@#.",
"X$%&*=-;@:::::::::::::::::::::::::::::::::::::::::::::::::::::@X",
"X>,,<1234o+++@::::::::::::::::::::::::::::::::::::::::::::::::@X",
"X$%*5267890 qw::::::::::::::::::::::::::::::::::::::::::::::::@X",
"X:ertyuipasdfu::::::::::::::::::::::::::::::::::::::::::::::::@X",
"X@gh;;>jkl;z4g::::::::::::::::::::::::::::::::::::::::::::::::@X",
"X@:@@@:@@@@@::::::::::::::::::::::::::::::::::::::::::::::::::@X",
"X@::::::::::::::::::::::::::::::::::::::::::::::::::::::::::::@X",
"X@::::::::::::::::::::::::::::::::::::::::::::::::::::::::::::@X",
"X@::::::::::::::::::::::::::::::::::::::::::::::::::::::::::::@X",
"X@::::::::::::::::::::::::::::::::::::::::::::::::::::::::::::@X",
"X@::::::::::::::::::::::::::::::::::::::::::::::::::::::::::::@X",
"X@::::::::::::::::::::::::::::::::::::::::::::::::::::::::::::@X",
"X@::::::::::::::::::::::::::::::::::::::::::::::::::::::::::::@X",
"X@::::::::::::::::::::::::::::::::::::::::::::::::::::::::::::@X",
"X@::::::::::::::::::::::::::::::::::::::::::::::::::::::::::::@X",
"X@::::::::::::::::::::::::::::::::::::::::::::::::::::::::::::@X",
"X@::::::::::::::::::::::::::::::::::::::::::::::::::::::::::::@X",
"X@::::::::::::::::::::::::::::::::::::::::::::::::::::::::::::@X",
"X@::::::::::::::::::::::::::::::::::::::::::::::::::::::::::::@X",
"X@::::::::::::::::::::::::::::::::::::::::::::::::::::::::::::@X",
"X@::::::::::::::::::::::::::::::::::::::::::::::::::::::::::::@X",
"X@::::::::::::::::::::::::::::::::::::::::::::::::::::::::::::@X",
"X@::::::::::::::::::::::::::::::::::::::::::::::::::::::::::::@X",
"X@::::::::::::::::::::::::::::::::::::::::::::::::::::::::::::@X",
"X@::::::::::::::::::::::::::::::::::::::::::::::::::::::::::::@X",
"X@::::::::::::::::::::::::::::::::::::::::::::::::::::::::::::@X",
"X@::::::::::::::::::::::::::::::::::::::::::::::::::::::::::::@X",
"X@::::::::::::::::::::::::::::::::::::::::::::::::::::::::::::@X",
"X@::::::::::::::::::::::::::::::::::::::::::::::::::::::::::::@X",
"X@::::::::::::::::::::::::::::::::::::::::::::::::::::::::::::@X",
"X@::::::::::::::::::::::::::::::::::::::::::::::::::::::::::::@X",
"X@::::::::::::::::::::::::::::::::::::::::::::::::::::::::::::@X",
"X@::::::::::::::::::::::::::::::::::::::::::::::::::::::::::::@X",
"X@::::::::::::::::::::::::::::::::::::::::::::::::::::::::::::@X",
"X@::::::::::::::::::::::::::::::::::::::::::::::::::::::::::::@X",
"X@::::::::::::::::::::::::::::::::::::::::::::::::::::::::::::@X",
"X@::::::::::::::::::::::::::::::::::::::::::::::::::::::::::::@X",
"X@::::::::::::::::::::::::::::::::::::::::::::::::::::::::::::@X",
"X@::::::::::::::::::::::::::::::::::::::::::::::::::::::::::::@X",
"X@::::::::::::::::::::::::::::::::::::::::::::::::::::::::::::@X",
"X@::::::::::::::::::::::::::::::::::::::::::::::::::::::::::::@X",
"X@::::::::::::::::::::::::::::::::::::::::::::::::::::::::::::@X",
"X@::::::::::::::::::::::::::::::::::::::::::::::::::::::::::::@X",
"X@::::::::::::::::::::::::::::::::::::::::::::::::::::::::::::@X",
"X@::::::::::::::::::::::::::::::::::::::::::::::::::::::::::::@X",
"X@::::::::::::::::::::::::::::::::::::::::::::::::::::::::::::@X",
"X@::::::::::::::::::::::::::::::::::::::::::::::::::::::::::::@X",
"X@::::::::::::::::::::::::::::::::::::::::::::::::::::::::::::@X",
"X@::::::::::::::::::::::::::::::::::::::::::::::::::::::::::::@X",
"X@::::::::::::::::::::::::::::::::::::::::::::::::::::::::::::@X",
"X@::::::::::::::::::::::::::::::::::::::::::::::::::::::::::::@X",
"X@::::::::::::::::::::::::::::::::::::::::::::::::::::::::::::@X",
"X@::::::::::::::::::::::::::::::::::::::::::::::::::::::::::::@X",
"X@::::::::::::::::::::::::::::::::::::::::::::::::::::::::::::@X",
"X@::::::::::::::::::::::::::::::::::::::::::::::::::::::::::::@X",
"X@::::::::::::::::::::::::::::::::::::::::::::::::::::::::::::@X",
"X@::::::::::::::::::::::::::::::::::::::::::::::::::::::::::::@X",
"X@::::::::::::::::::::::::::::::::::::::::::::::::::::::::::::@X",
"X@::::::::::::::::::::::::::::::::::::::::::::::::::::::::::::@X",
"X@::::::::::::::::::::::::::::::::::::::::::::::::::::::::::::@X",
".#@@@@@@@@@@@@@@@@@@@@@@@@@@@@@@@@@@@@@@@@@@@@@@@@@@@@@@@@@@@@#.",
" .XXXXXXXXXXXXXXXXXXXXXXXXXXXXXXXXXXXXXXXXXXXXXXXXXXXXXXXXXXXX. "
};
