/* XPM */
static char *result[] = {
/* columns rows colors chars-per-pixel */
"64 64 72 1 ",
"  c #130100",
". c #1B0500",
"X c #210600",
"o c #250A01",
"O c #2B0C01",
"+ c #340F01",
"@ c #2C1204",
"# c #2F1807",
"$ c #2C1408",
"% c #331204",
"& c #3A1205",
"* c #321907",
"= c #3B1B06",
"- c #361408",
"; c #3B1408",
": c #351B09",
"> c #3B1C0A",
", c #372209",
"< c #3D230C",
"1 c #3D280C",
"2 c #3E2310",
"3 c #411207",
"4 c #431D06",
"5 c #421308",
"6 c #441B0A",
"7 c #491C09",
"8 c #402007",
"9 c #43230C",
"0 c #4C220C",
"q c #412B0E",
"w c #4C290D",
"e c #53220D",
"r c #502A0F",
"t c #432511",
"y c #4B2611",
"u c #462B11",
"i c #4B2C13",
"p c #532411",
"a c #582410",
"s c #532B13",
"d c #5A2B14",
"f c #572F18",
"g c #4B3015",
"h c #4E3319",
"j c #533215",
"k c #5F3017",
"l c #543319",
"z c #5B341A",
"x c #56381B",
"c c #5B3B1D",
"v c #623519",
"b c #613C1D",
"n c #68391D",
"m c #5E3E20",
"M c #623E20",
"N c #6A3D20",
"B c #63411E",
"V c #5F4020",
"C c #644322",
"Z c #6B4423",
"A c #6C4925",
"S c #664628",
"D c #6B4728",
"F c #6C4B29",
"G c #714423",
"H c #714A27",
"J c #724D2A",
"K c #784F2B",
"L c #75502C",
"P c #78502A",
"I c #785030",
"U c None",
/* pixels */
"UUUUUUUUUUUUUUUUUUUUUUUUUUUUUUUUUUUUUUUUUUUUUUUUUUUUUUUUUUUUUUUU",
"UUUUUUUUUUUUUUUUUUUUUUUUUUUUUUUUUUUUUUUUUUUUUUUUUUUUUUUUUUUUUUUU",
"UUUUUUUUUUUUUUUUUUUUUUUUUUUUUUUUUUUUUUUUUUUUUUUUUUUUUUUUUUUUUUUU",
"UUUUUUUUUUUUUUUUUUUUUUUUUUUUUUUUUUUUUUUUUUUUUUUUUUUUUUUUUUUUUUUU",
"UUUUUUUUUUUUUUUUUUUUUUUUUUUUUUUUUUUUUUUUUUUUUUUUUUUUUUUUUUUUUUUU",
"UUUUUUUUUUUUUUUUUUUUUUUUUUUUUUUUUUUUUUUUUUUUUUUUUUUUUUUUUUUUUUUU",
"UUUUUUUUUUUUUUUUUUUUUUUUUUUUUUUUUUUUUUUUUUUUUUUUUUUUUUUUUUUUUUUU",
"UUUUUUUUUUUUUUUUUUUUUUUUUUUUUUUUUUUUUUUUUUUUUUUUUUUUUUUUUUUUUUUU",
"UUUUUUUUUUUUUUUUUUUUUUUUUUUUUUUUUUUUUUUUUUUUUUUUUUUUUUUUUUUUUUUU",
"UUUUUUUUUUUUUUUUUUUUUUUUUUUUUUUUUUUUUUUUUUUUUUUUUUUUUUUUUUUUUUUU",
"UUUUUUUUUUUUUUUUUUUUUUUUUUUUUUUUUUUUUUUUUUUUUUUUUUUUUUUUUUUUUUUU",
"UUUUUUUUUUUUUUUUUUUUUUUUUUUUUUUUUUUUUUUUUUUUUUUUUUUUUUUUUUUUUUUU",
"UUUUUUUUUUUUUUUUUUUUUUUUUUUUUUUUUUUUUUUUUUUUUUUUUUUUUUUUUUUUUUUU",
"UUUUUUUUUUUUUUUUUUUUUUUUUUUUUUUUUUUUUUUUUUUUUUUUUUUUUUUUUUUUUUUU",
"UUUUUUUUUUUUUUUUUUUUUUUUUUUUUUUUUUUUUUUUUUUUUUUUUUUUUUUUUUUUUUUU",
"UUUUUUUUUUUUUUUUUUUUUUUUUUUUUUUUUUUUUUUUUUUUUUUUUUUUUUUUUUUUUUUU",
"UUUUUUUUUUUUUUUUUUUUUUUUUUUUUUUUUUUUUUUUUUUUUUUUUUUUUUUUUUUUUUUU",
"UUUUUUUUUUUUUUUUUUUUUUUUUUUUUUUUUUUUUUUUUUUUUUUUUUUUUUUUUUUUUUUU",
"UUUUUUUUUUUUUUUUUUUUUUUUUUUUUUUUUUUUUUUUUUUUUUUUUUUUUUUUUUUUUUUU",
"UUUUUUUUUUUUUUUUUUUUUUUUUUUUUUUUUUUUUUUUUUUUUUUUUUUUUUUUUUUUUUUU",
"UUUUUUUUUUUUUUUUUUUUUUUUUUUUUUUUUUUUUUUUUUUUUUUUUUUUUUUUUUUUUUUU",
"UUUUUUUUUUUUUUUUUUUUUUUUUUUUUUUUUUUUUUUUUUUUUUUUUUUUUUUUUUUUUUUU",
"UUUUUUUUUUUUUUUUUUUUUUUUUUUUUUUUUUUUUUUUUUUUUUUUUUUUUUUUUUUUUUUU",
"UUUUUUUUUUUUUUUUUUUUUUUUUUUUUUUUUUUUUUUUUUUUUUUUUUUUUUUUUUUUUUUU",
"UUUUUUUUUUUUUUUUUUUUUUUUUUUUUUUUUUUUUUUUUUUUUUUUUUUUUUUUUUUUUUUU",
"UUUUUUUUUUUUUUUUUUUUUUUUUUUUUUUUUUUUUUUUUUUUUUUUUUUUUUUUUUUUUUUU",
"UUUUUUUUUUUUUUUUUUUUUUUUUUUUUUUUUUUUUUUUUUUUUUUUUUUUUUUUUUUUUUUU",
"UUUUUUUUUUUUUUUUUUUUUUUUUUUUUUUUUUUUUUUUUUUUUUUUUUUUUUUUUUUUUUUU",
"UUUUUUUUUUUUUUUUUUUUUUUUUUUUUUUUUUUUUUUUUUUUUUUUUUUUUUUUUUUUUUUU",
"UUUUUUUUUUUUUUUUUUUUUUUUUUUUUUUUUUUUUUUUUUUUUUUUUUUUUUUUUUUUUUUU",
"UUUUUUUUUUUUUUUUUUUUUUUUUUUUUUUUUUUUUUUUUUUUUUUUUUUUUUUUUUUUUUUU",
"UUUUUUUUUUUUUUUUUUUUUUUUUUUUUUUUUUUUUUUUUUUUUUUUUUUUUUUUUUUUUUUU",
"UUUUUUUUUUUUUUUUUUUUUUUUUUUUUUUXoOUUUUUUUUUUUUUUUUUUUUUUUUUUUUUU",
"UUUUUUUUUUUUUUUUUUUUUUUUUU--;&+OXOO+UUUUUUUUUUUUUUUUUUUUUUUUUUUU",
"UUUUUUUUUUUUUUUUUUUUUUUU:;O-;;+OOO+&;:UUUUUUUUUUUUUUUUUUUUUUUUUU",
"UUUUUUUUUUUUUUUUUUUUU053-++&653&+&33656UUUUUUUUUUUUUUUUUUUUUUUUU",
"UUUUUUUUUUUUUUUUUUUU655&+++;777533356777UUUUUUUUUUUUUUUUUUUUUUUU",
"UUUUUUUUUUUUUUUUUUU7533&&&&57ee7777770775UUUUUUUUUUUUUUUUUUUUUUU",
"UUUUUUUUUUUUUUUUUU7633333;;67aeee7e0ee77357UUUUUUUUUUUUUUUUUUUUU",
"UUUUUUUUUUUUUUUUU66535577567eaa7eeerae77536UUUUUUUUUUUUUUUUUUUUU",
"UUUUUUUUUUUUUUUUy6;665ed07yyeaaeedddzre76&&6UUUUUUUUUUUUUUUUUUUU",
"UUUUUUUUUUUUUUUy6;;67edkapsfdkdaavvjjww47&+&UUUUUUUUUUUUUUUUUUUU",
"UUUUUUUUUUUUUUUy6;;6eavkssdvvvvdknbjj89=6ooo%UUUUUUUUUUUUUUUUUUU",
"UUUUUUUUUUUUUUUy6-6pdvbzzkbnNnvvvnBj9=*-$.o++UUUUUUUUUUUUUUUUUUU",
"UUUUUUUUUUUUUUU0;%7dzmMMBnBBNnnNnGHB8%+O.o=:oUUUUUUUUUUUUUUUUUUU",
"UUUUUUUUUUUUUUi0--0fMMMNBGGBGNNNGGBBwOo oyy-.UUUUUUUUUUUUUUUUUUU",
"UUUUUUUUUUUUUUfy>6rknCCZGGGNNNNGGPBHB@.@jl<O.UUUUUUUUUUUUUUUUUUU",
"UUUUUUUUUUUUUlly0ydbCNBGGPPGNGNKPBHJFs>bcw476UUUUUUUUUUUUUUUUUUU",
"UUUUUUUUUUUUmhfisdzBCBBHPKJNBGHKLALFDDDDcjkzd0iUUUUUUUUUUUUUUUUU",
"UUUUUUUUUUUUhhsfccbBVmBZKKKGnGHKDFFADDCSZbckaeslUUUUUUUUUUUUUUUU",
"UUUUUUUUUUUUhiimbbACmccDKIKHGGJDALAAACmzCbzdeeesUUUUUUUUUUUUUUUU",
"UUUUUUUUUUUht>txbCACmzcDIIKJHAAALABSCVmlzczseeesUUUUUUUUUUUUUUUU",
"UUUUUUUUUUUmt>ylcADCmlzMJKJKJABLFABBCcjsjjjdr00s9UUUUUUUUUUUUUUU",
"UUUUUUUUUUht->tsCDZclflMJFJJFCFLABAAVxhhisps009u<UUUUUUUUUUUUUUU",
"UUUUUUUUUUyt::tmSDMmlslmDDDDCBJSBCBCccjljsyy081<OUUUUUUUUUUUUUUU",
"UUUUUUUUUCm2$$imCDCmfljzMCMMxCCCVCCBCVccjiu98>>@UUUUUUUUUUUUUUUU",
"UUUUUUUUUFl. o2SBBCVxxjxmMmmgmmmVVVBVVxxxg2,**$.UUUUUUUUUUUUUUUU",
"UUUUUUUUFD,. $<CJBVVmczlmmsttugxVVBVVxxxg1#oo.  UUUUUUUUUUUUUUUU",
"UUUUUUUUFV>o.#9DJJABVczlfmit22uhxxVxxhg1<$.   UUUUUUUUUUUUUUUUUU",
"UUUUUUUFSSi&%%gJJFLABVxjffu>tttigxxggg11@   UUUUUUUUUUUUUUUUUUUU",
"UUUUUUUSbSDj9rAHJFJJAbcxlsttqwughhggg1,@  UUUUUUUUUUUUUUUUUUUUUU",
"UUUUUUSFCcbCCSAJFFHHHAccmhttuuiggggg1#.  UUUUUUUUUUUUUUUUUUUUUUU",
"UUUUUCFDSCcccBCASDFFDDCcmlihggggggg1,.  .UUUUUUUUUUUUUUUUUUUUUUU",
"UUUUVCFCCDCScxVVASAFDFmcmmhfhhggug1,@   UUUUUUUUUUUUUUUUUUUUUUUU"
};
