/* XPM */
static char *result[] = {
/* columns rows colors chars-per-pixel */
"64 64 72 1 ",
"  c #0F0000",
". c #130100",
"X c #1A0500",
"o c #1E0902",
"O c #210701",
"+ c #230B02",
"@ c #2A0E01",
"# c #271105",
"$ c #2C1203",
"% c #2D1308",
"& c #331302",
"* c #391600",
"= c #361A06",
"- c #3C1902",
"; c #341408",
": c #391608",
"> c #351B09",
", c #3B1B09",
"< c #371E11",
"1 c #3F2207",
"2 c #3D220B",
"3 c #3F280C",
"4 c #3E2110",
"5 c #411D03",
"6 c #421D0B",
"7 c #422006",
"8 c #44220A",
"9 c #4B240A",
"0 c #452A0E",
"q c #4D280C",
"w c #50270E",
"e c #50290D",
"r c #402711",
"t c #4B2411",
"y c #452911",
"u c #4C2A12",
"i c #4B2F1A",
"p c #522710",
"a c #522B11",
"s c #592C13",
"d c #542F19",
"f c #4E3116",
"g c #553116",
"h c #5B3217",
"j c #553419",
"k c #5B341A",
"l c #5C3A1C",
"z c #63351A",
"x c #643B1D",
"c c #6A3D1E",
"v c #673E20",
"b c #6B3E20",
"n c #5F401F",
"m c #634222",
"M c #6C4322",
"N c #6E4925",
"B c #6E4728",
"V c #6D4A28",
"C c #734524",
"Z c #734925",
"A c #754C29",
"S c #794C29",
"D c #75512C",
"F c #7B532D",
"G c #7C5532",
"H c #7E5831",
"J c #81562E",
"K c #845730",
"L c #845A33",
"P c #885C34",
"I c #886038",
"U c None",
/* pixels */
"UUUUUUUUUUUUUUUUUUUUUUUUUUUUUUUUUUUUUUUUUUUUUUUUUUUUUUUUUUUUUUUU",
"UUUUUUUUUUUUUUUUUUUUUUUUUUUUUUUUUUUUUUUUUUUUUUUUUUUUUUUUUUUUUUUU",
"UUUUUUUUUUUUUUUUUUUUUUUUUUUUUUUUUUUUUUUUUUUUUUUUUUUUUUUUUUUUUUUU",
"UUUUUUUUUUUUUUUUUUUUUUUUUUUUUUUUUUUUUUUUUUUUUUUUUUUUUUUUUUUUUUUU",
"UUUUUUUUUUUUUUUUUUUUUUUUUUUUUUUUUUUUUUUUUUUUUUUUUUUUUUUUUUUUUUUU",
"UUUUUUUUUUUUUUUUUUUUUUUUUUUUUUUUUUUUUUUUUUUUUUUUUUUUUUUUUUUUUUUU",
"UUUUUUUUUUUUUUUUUUUUUUUUUUUUUUUUUUUUUUUUUUUUUUUUUUUUUUUUUUUUUUUU",
"UUUUUUUUUUUUUUUUUUUUUUUUUUUUUUUUUUUUUUUUUUUUUUUUUUUUUUUUUUUUUUUU",
"UUUUUUUUUUUUUUUUUUUUUUUUUUUUUUUUUUUUUUUUUUUUUUUUUUUUUUUUUUUUUUUU",
"UUUUUUUUUUUUUUUUUUUUUUUUUUUUUUUUUUUUUUUUUUUUUUUUUUUUUUUUUUUUUUUU",
"UUUUUUUUUUUUUUUUUUUUUUUUUUUUUUUUUUUUUUUUUUUUUUUUUUUUUUUUUUUUUUUU",
"UUUUUUUUUUUUUUUUUUUUUUUUUUUUUUUUUUUUUUUUUUUUUUUUUUUUUUUUUUUUUUUU",
"UUUUUUUUUUUUUUUUUUUUUUUUUUUUUUUUUUUUUUUUUUUUUUUUUUUUUUUUUUUUUUUU",
"UUUUUUUUUUUUUUUUUUUUUUUUUUUUUUUUUUUUUUUUUUUUUUUUUUUUUUUUUUUUUUUU",
"UUUUUUUUUUUUUUUUUUUUUUUUUUUUUUUUUUUUUUUUUUUUUUUUUUUUUUUUUUUUUUUU",
"UUUUUUUUUUUUUUUUUUUUUUUUUUUUUUUUUUUUUUUUUUUUUUUUUUUUUUUUUUUUUUUU",
"UUUUUUUUUUUUUUUUUUUUUUUUUUUUUUUUUUUUUUUUUUUUUUUUUUUUUUUUUUUUUUUU",
"UUUUUUUUUUUUUUUUUUUUUUUUUUUUUUUUUUUUUUUUUUUUUUUUUU;;:UUUUUUUUUUU",
"UUUUUUUUUUUUUUUUUUUUUUUUUUUUUUUUUUUUUUUUUUUUUU,,::;%@$UUUUUUUUUU",
"UUUUUUUUUUUUUUUUUUUUUUUUUUUUUUUUUUUUUUUUUUUuttt66:;;;;;:6:UUUUUU",
"UUUUUUUUUUUUUUUUUUUUUUUUUUUUUUUUUUUUUUUUudkhappwt666656:6:,UUUUU",
"UUUUUUUUUUUUUUUUUUUUUUUUUUUUUUUUUUUUUUUMzhvvzszzzsspp66t6,:UUUUU",
"UUUUUUUUUUUUUUUUUUUUUUUUUUUUUUUUUUUUUvCCcbbSCCCCCbcczstpw6::UUUU",
"UUUUUUUUUUUUUUUUUUUUUUUUUUUUUUUUUUUUvbCBzvSSSCSFJSSCbspps9;:,UUU",
"UUUUUUUUUUUUUUUUUUUUUUUUUUUUUUUUUUiikSJk$&lSASSFKKJSCxhszt,:,UUU",
"UUUUUUUUUUUUUUUUUUUUUUUUUUUUUUUUUU>@4GLl&+#xCCSSPPKSCcccvd6,:UUU",
"UUUUUUUUUUUUUUUUUUUUUUUUUUUUUUUUUjllulLFg&&xbbCSKPKJCbCcva,,::UU",
"UUUUUUUUUUUUUUUUUUUUUUUUUUUUUUUdMAGGDAKFMllACcCSKPKJCJCCba86;,UU",
"UUUUUUUUUUUUUUUUUUUUUUUUUUUUUdvkBGFFDGLLFFHJCbMAFPPKDSSSNj,,>,UU",
"UUUUUUUUUUUUUUUUUUUUUUUUUUUUju4><ivFSAKLHFHLFbMSSKKKHFDZMv,:$,UU",
"UUUUUUUUUUUUUUUUUUUUUUUUUUUj4+. . X<xcZFDLLLKCMSSSFSDDZZMnr@=>@U",
"UUUUUUUUUUUUUUUUUUUUUUUUUUU3X .+@$&+%hcASLIHGAMZFMCCMMCnllrO@.XU",
"UUUUUUUUUUUUUUUUUUUUUUUUUU4+ X&--76-@:zCZFILZDNMNxzhlMnjggrX...U",
"UUUUUUUUUUUUUUUUUUUUUUUUUU%.X-767q96*@tvMFIFMNnhMgsegljg0au+X;%U",
"UUUUUUUUUUUUUUUUUUUUUUUUUUoX,aqqwkhq6&:xMFLDlngflu08ujjqqay,@$UU",
"UUUUUUUUUUUUUUUUUUUUUUUUU%X>ggashhlg98,aADLDNmgfiy1,0glgup06@OUU",
"UUUUUUUUUUUUUUUUUUUUUUUUUU#aj0qskkmgau96VVFDVf20q0=>0jlgpt66%UUU",
"UUUUUUUUUUUUUUUUUUUUUUUUU#8juqggglkkgdu8kmVmf=20y2220ujjaq:,:,UU",
"UUUUUUUUUUUUUUUUUUUUUUUU>,uqwhlhakkkkja60mlr++$04>220fjlu8&;6yUU",
"UUUUUUUUUUUUUUUUUUUUUUUU4tt9egjlkknnlka-1n2+ .#%%221220fy,;@=,UU",
"UUUUUUUUUUUUUUUUUUUUUUU89q8qqwegkvnnkdq&,f#. ...+&=2>>3ur2&@:,UU",
"UUUUUUUUUUUUUUUUUUUUUUyyq79pswqggljkhu6@44X  . .X+++o#>r2>##;=UU",
"UUUUUUUUUUUUUUUUUUUUUry877qeeqgsahdday=oi>UUUUUUU.....$$$#@=$;UU",
"UUUUUUUUUUUUUUUUUUUUy01879eegegeaupty,@+i#UUUUUUUUUUUU+.XX$=%@UU",
"UUUUUUUUUUUUUUUUUUU08869qeegggggapyy,&o<3UUUUUUUUUUUUUUU o$+@#UU",
"UUUUUUUUUUUUUUUUUU11889qgasgesepu883,+XiUUUUUUUUUUUUUUUUU+o.UUUU",
"UUUUUUUUUUUUUUUU,81679ewaagsheupq781=XorUUUUUUUUUUUUUUUUUUUUUUUU",
"UUUUUUUUUUUUUUU,,7799egswaeehepp8612&XUUUUUUUUUUUUUUUUUUUUUUUUUU",
"UUUUUUUUUUUUUU:--579eeaaaaaaawpq7518$.UUUUUUUUUUUUUUUUUUUUUUUUUU",
"UUUUUUUUUUUUU,:5559qweaaappupwwq717,#UUUUUUUUUUUUUUUUUUUUUUUUUUU",
"UUUUUUUUUUUU&--579ewweeauegewqq975,&@UUUUUUUUUUUUUUUUUUUUUUUUUUU",
"UUUUUUUUUUU=*-559eeqggeegaaea0q96--&+UUUUUUUUUUUUUUUUUUUUUUUUUUU",
"UUUUUUUUUU**-5599ewseeaaqeesw0q95-&$UUUUUUUUUUUUUUUUUUUUUUUUUUUU",
"UUUUUUUUU&*55569eeeeuaaeqpawwq97--&@UUUUUUUUUUUUUUUUUUUUUUUUUUUU",
"UUUUUUUU&&55559eeewupaeeeewqq96-**$@UUUUUUUUUUUUUUUUUUUUUUUUUUUU",
"UUUUUUU&*-5599eewuppaqqeeeuu987--&@+UUUUUUUUUUUUUUUUUUUUUUUUUUUU",
"UUUUUUU*-5599eeepuwwaweewpqw6655*&@XUUUUUUUUUUUUUUUUUUUUUUUUUUUU",
"UUUUUU&*5559eeeeaepuwweepw9965**&&+UUUUUUUUUUUUUUUUUUUUUUUUUUUUU",
"UUUUU*-5569eeeeewaweeqqeqq96555&&&XUUUUUUUUUUUUUUUUUUUUUUUUUUUUU",
"UUUU*--556eeeewewwweeqq9q66555*&&+XUUUUUUUUUUUUUUUUUUUUUUUUUUUUU",
"UUUU**557999eeeeeweee99997115*&&$o.UUUUUUUUUUUUUUUUUUUUUUUUUUUUU",
"UUU***-59ee9eee9qqq99977977-*&&&@XUUUUUUUUUUUUUUUUUUUUUUUUUUUUUU",
"UU***-59ee99ewewqq997996975-*&&$o.UUUUUUUUUUUUUUUUUUUUUUUUUUUUUU",
"UU*&-559e9qeew9wee95957777-&&@&+.UUUUUUUUUUUUUUUUUUUUUUUUUUUUUUU"
};
