/* XPM */
static char *result[] = {
/* columns rows colors chars-per-pixel */
"64 64 71 1 ",
"  c #0E0000",
". c #150100",
"X c #1C0500",
"o c #1E0904",
"O c #200700",
"+ c #230A01",
"@ c #2C0D01",
"# c #2B1103",
"$ c #2C1509",
"% c #331303",
"& c #3A1505",
"* c #361906",
"= c #391903",
"- c #321408",
"; c #3A1508",
": c #341A0A",
"> c #3C1D0A",
", c #37200E",
"< c #3D220B",
"1 c #3D2310",
"2 c #401708",
"3 c #431B0A",
"4 c #491E0C",
"5 c #43240C",
"6 c #4A240E",
"7 c #47290F",
"8 c #4A280D",
"9 c #54230F",
"0 c #522A0E",
"q c #442510",
"w c #4A2510",
"e c #452911",
"r c #4C2B13",
"t c #4E2D18",
"y c #542610",
"u c #592712",
"i c #522C14",
"p c #5A2D14",
"a c #512E18",
"s c #4E3016",
"d c #4E3018",
"f c #543116",
"g c #5D3117",
"h c #513118",
"j c #5B3419",
"k c #54381C",
"l c #5C3A1D",
"z c #613417",
"x c #62361A",
"c c #633B1D",
"v c #6A3C1E",
"b c #5C3C21",
"n c #643E20",
"m c #6D3E20",
"M c #63421E",
"N c #634221",
"B c #6B4423",
"V c #6D4925",
"C c #67472B",
"Z c #6D4B2A",
"A c #724423",
"S c #724925",
"D c #734D2A",
"F c #784E2B",
"G c #76512D",
"H c #78512E",
"J c #6F4C30",
"K c #775130",
"L c #795531",
"P c #7C5832",
"I c None",
/* pixels */
"IIIIIIIIIIIIIIIIIIIIIIIIIIIIIIIIIIIIIIIIIIIIIIIIIIIIIIIIIIIIIIII",
"IIIIIIIIIIIIIIIIIIIIIIIIIIIIIIIIIIIIIIIIIIIIIIIIIIIIIIIIIIIIIIII",
"IIIIIIIIIIIIIIIIIIIIIIIIIIIIIIIIIIIIIIIIIIIIIIIIIIIIIIIIIIIIIIII",
"IIIIIIIIIIIIIIIIIIIIIIIIIIIIIIIIIIIIIIIIIIIIIIIIIIIIIIIIIIIIIIII",
"IIIIIIIIIIIIIIIIIIIIIIIIIIIIIIIIIIIIIIIIIIIIIIIIIIIIIIIIIIIIIIII",
"IIIIIIIIIIIIIIIIIIIIIIIIIIIIIIIIIIIIIIIIIIIIIIIIIIIIIIIIIIIIIIII",
"IIIIIIIIIIIIIIIIIIIIIIIIIIIIIIIIIIIIIIIIIIIIIIIIIIIIIIIIIIIIIIII",
"IIIIIIIIIIIIIIIIIIIIIIIIIIIIIIIIIIIIIIIIIIIIIIIIIIIIIIIIIIIIIIII",
"IIIIIIIIIIIIIIIIIIIIIIIIIIIIIIIIIIIIIIIIIIIIIIIIIIIIIIIIIIIIIIII",
"IIIIIIIIIIIIIIIIIIIIIIIIIIIIIIIIIIIIIIIIIIIIIIIIIIIIIIIIIIIIIIII",
"IIIIIIIIIIIIIIIIIIIIIIIIIIIIIIIIIIIIIIIIIIIIIIIIIIIIIIIIIIIIIIII",
"IIIIIIIIIIIIIIIIIIIIIIIIIIIIIIIIIIIIIIIIIIIIIIIIIIIIIIIIIIIIIIII",
"IIIIIIIIIIIIIIIIIIIIIIIIIIIIIIIIIIIIIIIIIIIIIIIIIIIIIIIIIIIIIIII",
"IIIIIIIIIIIIIIIIIIIIIIIIIIIIIIIIIIIIIIIIIIIIIIIIIIIIIIIIIIIIIIII",
"IIIIIIIIIIIIIIIIIIIIIIIIIIIIIIIIIIIIIIIIIIIIIIIIIIIIIIIIIIIIIIII",
"IIIIIIIIIIIIIIIIIIIIIIIIIIIIIIIIIIIIIIIIIIIIIIIIIIIIIIIIIIIIIIII",
"IIIIIIIIIIIIIIIIIIIIIIIIIIIIIIIIIIIIIIIIIIIIIIIIIIIIIIIIIIIIIIII",
"IIIIIIIIIIIIIIIIIIIIIIIIIIIIIIIIIIIIIIIIIIIIIIIIIIIIIIIIIIIIIIII",
"IIIIIIIIIIIIIIIIIIIIIIIIIIIIIIIIIIIIIIIIIIIIIIIIIIIIIIIIIIIIIIII",
"IIIIIIIIIIIIIIIIIIIIIIIIIIIIIIIIIIIIIIIIIIIIIIIIIIIIIIIIIIIIIIII",
"IIIIIIIIIIIIIIIIIIIIIIIIIIIIIIIIIIIIIIIIIIIIIIIIIIIIIIIIIIIIIIII",
"IIIIIIIIIIIIIIIIIIIIIIIIIIIIIIIIIIIIIIIIIIIIIIIIIIIIIIIIIIIIIIII",
"IIIIIIIIIIIIIIIIIIIIIIIIIIIIIIIIIIIIIIIIIIIIIIIIIIIIIIIIIIIIIIII",
"IIIIIIIIIIIIIIIIIIIIIIIIIIIIIIIIIIIIIIIIIIIIIII-IIIIIIIIIIIIIIII",
"IIIIIIIIIIIIIIIIIIIIIIIIIIIIIIIIIIIIIIIIIIIIII----IIIIIIIIIIIIII",
"IIIIIIIIIIIIIIIIIIIIIIIIIIIIIIIIIIIIIIIII24;;-##-@%@@@@IIIIIIIII",
"IIIIIIIIIIIIIIIIIIIIIIIIIIIIIIIIIIIIIII:;332;%;;;-%@@@%%IIIIIIII",
"IIIIIIIIIIIIIIIIIIIIIIIIIIIIIIIIIIIIII;;;344>244322;%&@@-IIIIIII",
"IIIIIIIIIIIIIIIIIIIIIIIIIIIIIIIIIIII;%;;44iw446wyyw422&&*;IIIIII",
"IIIIIIIIIIIIIIIIIIIIIIIIIIIIIIIIIIII%@;3wupuy9ipppuw444232>IIIII",
"IIIIIIIIIIIIIIIIIIIIIIIIIIIIIIIIII3;%-24pnngppjxzxpu99y6432IIIII",
"IIIIIIIIIIIIIIIIIIIIIIIIIIIIIIIIII>2;;4gnmmnxbcvxxpuuzpyi4>3IIII",
"IIIIIIIIIIIIIIIIIIIIIIIIIIIIIIIIIIq336inMAAMAMAAvzzuzzz0p3>>>III",
"IIIIIIIIIIIIIIIIIIIIIIIIIIIIIIIIItewrixBASSAASAAMvzzzzz0i54>:III",
"IIIIIIIIIIIIIIIIIIIIIIIIIIIIIIIIatrppvBASSADFHFAmmvvvvx06qq>:#II",
"IIIIIIIIIIIIIIIIIIIIIIIIIIIIIIIwwwrjvSAMMMVFHPFSmmmmMAv8=551#-II",
"IIIIIIIIIIIIIIIIIIIIIIIIIIIIIII535icVVvNnBSHPHHFAAAAAmMg:><$O@II",
"IIIIIIIIIIIIIIIIIIIIIIIIIIIIIIr7:3inBcjjxnBGPPKFAAAAAAMx;@@.O-II",
"IIIIIIIIIIIIIIIIIIIIIIIIIIIIIIr575wkMjuijlBFPPLFFAAFFAAA7XX#<:II",
"IIIIIIIIIIIIIIIIIIIIIIIIIIIIIbjckq:<lj06ylnFPPKKFFFFFFASf%qr>#II",
"IIIIIIIIIIIIIIIIIIIIIIIIIIIIIdZDa+OOeju6wjNSKLFKGHHHFSBNlrf5@III",
"IIIIIIIIIIIIIIIIIIIIIIIIIIIVkrZGa@@@;ciyigmVFFDFGLHJSCNnMlr*IIII",
"IIIIIIIIIIIIIIIIIIIIIIIIIBKLDllZB3@&wnxipgBBDSBSGKGVDNnkkjk5IIII",
"IIIIIIIIIIIIIIIIIIIIIIIIBBFLGBfNZli0VSMljxBcBmxADDVZBMbjffkiaIII",
"IIIIIIIIIIIIIIIIIIIIIIbcNAHLPZDGZBGLLGVNbnBnncjcBNSZNMlfiri66afI",
"IIIIIIIIIIIIIIIIIIIICnjpxMVSDGKKGZVZLLGVBnBccjujlNVNNMkkiii633rI",
"IIIIIIIIIIIIIIIIIIIbktfhlcNNVFKKHHGVGPGVSBNxjj0ugbbbNbbjgir5327I",
"IIIIIIIIIIIIIIIIIIte::>qtknNBBDDLLLGZGPGZCNkxg06rfjbbNbcfg05<>7e",
"IIIIIIIIIIIIIIIIII$X..X.X$<flcVDGKLLGNGGZVbMca565rijbMbljjs<<1<:",
"IIIIIIIIIIIIIIIIIII .XXX++++;fcBZGGLGVVGBMMMlw4456tfhkjkff7<,:%I",
"IIIIIIIIIIIIIIIIIIII$*%==;:%@-jBJHKLGZNVNBNlr57>57rrssdhss<,-$:I",
"IIIIIIIIIIIIIIIIIIII***<5r5><--NGGGGZNMMVNhd76<7qee5ee1111,:-:II",
"IIIIIIIIIIIIIIIIIII>*;<eifa85<$<GGJGNklMZssse5<<q<<,,,--::-:IIII",
"IIIIIIIIIIIIIIIII$=,737etfarr57=dZVZMMGLkedee<<<,1:-$::-:IIIIIII",
"IIIIIIIIIIIIIII;**>><rerddtaft5<,CZNMZLZ7<1,::::$:--::IIIIIIIIII",
"IIIIIIIIIIIII%#*=*><<rfdfffaaf5<,eCMNLZk,*::-$::-IIIIIIIIIIIIIII",
"IIIIIIIIIIII=%%%=<<57rtffddffd7,**bbNCk,@$-:,IIIIIIIIIIIIIIIIIII",
"IIIIIIIIIII=%%%<<5877dddddffde7&##ekks$+oIIIIIIIIIIIIIIIIIIIIIII",
"IIIIIIII=%====>5588afdffdfftee>%++$e1@X.IIIIIIIIIIIIIIIIIIIIIIII",
"IIIIIII=%%===5558irdfdddddte5*@++X#,+..IIIIIIIIIIIIIIIIIIIIIIIII",
"IIIII=%%====5558itddfdddtrw,#@OO+X$:.IIIIIIIIIIIIIIIIIIIIIIIIIII",
"IIII======<<5880dtfdtdfdtw>##@O+Xo+o.IIIIIIIIIIIIIIIIIIIIIIIIIII",
"III==%==*<588rffdftfdas75=###+OXX...IIIIIIIIIIIIIIIIIIIIIIIIIIII",
"II======<888rfdsdfdddr5<=###+OXX...IIIIIIIIIIIIIIIIIIIIIIIIIIIII"
};
