/* XPM */
static char *result[] = {
/* columns rows colors chars-per-pixel */
"64 64 69 1 ",
"  c #110201",
". c #1D0500",
"X c #110906",
"o c #1E0801",
"O c #120D0B",
"+ c #1B0D09",
"@ c #14110C",
"# c #1C140D",
"$ c #230600",
"% c #240A01",
"& c #2B0D01",
"* c #210E09",
"= c #271003",
"- c #2E1205",
"; c #24130B",
": c #2C1409",
"> c #27180F",
", c #2E180C",
"< c #321405",
"1 c #381606",
"2 c #351807",
"3 c #311609",
"4 c #34190B",
"5 c #3B1C0B",
"6 c #221710",
"7 c #261A13",
"8 c #2C1C12",
"9 c #331E12",
"0 c #3A1F10",
"q c #3C200E",
"w c #362114",
"e c #3C2313",
"r c #3F2814",
"t c #3D2518",
"y c #421E0D",
"u c #43220E",
"i c #442411",
"p c #492511",
"a c #452A14",
"s c #4B2B14",
"d c #452C19",
"f c #4D2E19",
"g c #512D16",
"h c #502E19",
"j c #4B3116",
"k c #4C321A",
"l c #513215",
"z c #53341B",
"x c #59351C",
"c c #54391C",
"v c #5B3A1D",
"b c #60371A",
"n c #613B1D",
"m c #553B22",
"M c #5C3D21",
"N c #613E21",
"B c #62401F",
"V c #5D4125",
"C c #5E4329",
"Z c #634223",
"A c #6A4523",
"S c #674827",
"D c #6C4826",
"F c #66472A",
"G c #6D4A2A",
"H c #704A26",
"J c #704A28",
"K c #795533",
"L c None",
/* pixels */
"LLLLLLLLLLLLLLLLLLLLLLLLLLLLLLLLLLLLLLLLLLLLLLLLLLLLLLLLLLLLLLLL",
"LLLLLLLLLLLLLLLLLLLLLLLLLLLLLLLLLLLLLLLLLLLLLLLLLLLLLLLLLLLLLLLL",
"LLLLLLLLLLLLLLLLLLLLLLLLLLLLLLLLLLLLLLLLLLLLLLLLLLLLLLLLLLLLLLLL",
"LLLLLLLLLLLLLLLLLLLLLLLLLLLLLLLLLLLLLLLLLLLLLLLLLLLLLLLLLLLLLLLL",
"LLLLLLLLLLLLLLLLLLLLLLLLLLLLLLLLLLLLLLLLLLLLLLLLLLLLLLLLLLLLLLLL",
"LLLLLLLLLLLLLLLLLLLLLLLLLLLLLLLLLLLLLLLLLLLLLLLLLLLLLLLLLLLLLLLL",
"LLLLLLLLLLLLLLLLLLLLLLLLLLLLLLLLLLLLLLLLLLLLLLLLLLLLLLLLLLLLLLLL",
"LLLLLLLLLLLLLLLLLLLLLLLLLLLLLLLLLLLLLLLLLLLLLLLLLLLLLLLLLLLLLLLL",
"LLLLLLLLLLLLLLLLLLLLLLLLLLLLLLLLLLLLLLLLLLLLLLLLLLLLLLLLLLLLLLLL",
"LLLLLLLLLLLLLLLLLLLLLLLLLLLLLLLLLLLLLLLLLLLLLLLLLLLLLLLLLLLLLLLL",
"LLLLLLLLLLLLLLLLLLLLLLLLLLLLLLLLLLLLLLLLLLLLLLLLLLLLLLLLLLLLLLLL",
"LLLLLLLLLLLLLLLLLLLLLLLLLLLLLLLLLLLLLLLLLLLLLLLLLLLLLLLLLLLLLLLL",
"LLLLLLLLLLLLLLLLLLLLLLLLLLLLLLLLLLLLLLLLLLLLLLLLLLLLLLLLLLLLLLLL",
"LLLLLLLLLLLLLLLLLLLLLLLLLLLLLLLLLLLLLLLLLLLLLLLLLLLLLLLLLLLLLLLL",
"LLLLLLLLLLLLLLLLLLLLLLLLLLLLLLLLLLLLLLLLLLLLLLLLLLLLLLLLLLLLLLLL",
"LLLLLLLLLLLLLLLLLLLLLLLLLLLLLLLLLLLLLLLLLLLLLLLLLLLLLLLLLLLLLLLL",
"LLLLLLLLLLLLLLLLLLLLLLLLLLLLLLLLLLLLLLLLLLLLLLLLLLLLLLLLLLLLLLLL",
"LLLLLLLLLLLLLLLLLLLLLLLLLLLLLLLLLLLLLLLLLLLLLLLLLLLLLLLLLLLLLLLL",
"LLLLLLLLLLLLLLLLLLLLLLLLLLLLLLLLLLLLLLLLLLLLLLLLLLLLLLLLLLLLLLLL",
"LLLLLLLLLLLLLLLLLLLLLLLLLLLLLLLLLLLLLLLLLLLLLLLLLLLLLLLLLLLLLLLL",
"LLLLLLLLLLLLLLLLLLLLLLLLLLLLLLLLLLLLLLLLLLLLLLLLLLLLLLLLLLLLLLLL",
"LLLLLLLLLLLLLLLLLLLLLLLLLLLLLLLLLLLLLLLLLLLLLLLLLLLLLLLLLLLLLLLL",
"LLLLLLLLLLLLLLLLLLLLLLLLLLLLLLLLLLLLLLLLLLLLLLLLLLLLLLLLLLLLLLLL",
"LLLLLLLLLLLLLLLLLLLLLLLLLLLLLLLLLLLLLLLLLLLLLLLLLLLLLLLLLLLLLLLL",
"LLLLLLLLLLLLLLLLLLLLLLLLLLLLLLLLLLLLLLLLLLLLLLLLLLLLLLLLLLLLLLLL",
"LLLLLLLLLLLLLLLLLLLLLLLLLLLLLLLLLLLLLLLLLLLLLLLLLLLLLLLLLLLLLLLL",
"LLLLLLLLLLLLLLLLLLLLLLLLLLLLLLLLLLLLLLLLLLLLLLLLLLLLLLLLLLLLLLLL",
"LLLLLLLLLLLLLLLLLLLLLLLLLLLLLLLLLLLLLLLLLLLLLLLLLLLLLLLLLLLLLLLL",
"LLLLLLLLLLLLLLLLLLLLLLLLLLLLLLLLLLLLLLLLLLLLLLLLLLLLLLLLLLLLLLLL",
"LLLLLLLLLLLLLLLLLLLLLLLLLLLLLLLLLLLLLLLLLLLLLLLLLLLLLLLLLLLLLLLL",
"LLLLLLLLLLLLLLLLLLLLLLLLLLLLLLLLLLLLLLLLLLLLLLLLLLLLLLLLLLLLLLLL",
"LLLLLLLLLLLLLLLLLLLLL53-LLLLLLLLLLLLLLLLLLLLLLLLLLLLLLLLLLLLLLLL",
"LLLLLLLLLLLLLLLLLLLL543-&XLLLLLLLLLLLLLLLLLLLLLLLLLLLLLLLLLLLLLL",
"LLLLLLLLLLLLLLLLLLL41::--%%&4-&LLLLLLLLLLLLLLLLLLLLLLLLLLLLLLLLL",
"LLLLLLLLLLLLLLLLLL,33*:32-&24<<% LLLLLLLLLLLLLLLLLLLLLLLLLLLLLLL",
"LLLLLLLLLLLLLLLLL93&:<31y525541&. LLLLLLLLLLLLLLLLLLLLLLLLLLLLLL",
"LLLLLLLLLLLLLLLLL43--31yyyyyu551&$&<LLLLLLLLLLLLLLLLLLLLLLLLLLLL",
"LLLLLLLLLLLLLLLL393331yppppupuuyy1yy5LLLLLLLLLLLLLLLLLLLLLLLLLLL",
"LLLLLLLLLLLLLLL;,4431ypggsggfsspyyyp04LLLLLLLLLLLLLLLLLLLLLLLLLL",
"LLLLLLLLLLLLLLL%34555yggxbNnxgxhppgpi55LLLLLLLLLLLLLLLLLLLLLLLLL",
"LLLLLLLLLLLLLLLo35yipggxbAAnnbxxggxhspi0LLLLLLLLLLLLLLLLLLLLLLLL",
"LLLLLLLLLLLLLLLo<5yghggxbAHABvxmbbNxgssi5LLLLLLLLLLLLLLLLLLLLLLL",
"LLLLLLLLLLLLLL o&4yphxNxnnDHDbxMMnNvvxhsiiLLLLLLLLLLLLLLLLLLLLLL",
"LLLLLLLLLLLLLL %:4ppgNNbnBHHAvvxvNNNMMxfdaLLLLLLLLLLLLLLLLLLLLLL",
"LLLLLLLLLLLLLL$=31upgxNNZAHABvxxxxxvNNvkppiLLLLLLLLLLLLLLLLLLLLL",
"LLLLLLLL33q4;+:,35pghMFDSHJAvvzxgsfzvNvhsi0LLLLLLLLLLLLLLLLLLLLL",
"LLLLLLL:-4qpy0441qphxNFDHJJZZvzkppsfxMvkpi0LLLLLLLLLLLLLLLLLLLLL",
"LLLLLLL,,4iffsqq5upgbNFDHJDZvs55ipplxMMxpi00LLLLLLLLLLLLLLLLLLLL",
"LLLLLL<,45allsauuuflMZSDHJAMlpq5yaslxMMzpiq5LLLLLLLLLLLLLLLLLLLL",
"LLLLLL%4qqjcjssaapflvNZZDANMkavluffxMZMxaqeeLLLLLLLLLLLLLLLLLLLL",
"LLLLLL%-wajklksajfjcvNMZZSMlwqvZzzmmmZVvfueiLLLLLLLLLLLLLLLLLLLL",
"LLLLLL%=qqajkkkkjccMZvvvZNme8aFVdwwwdzxvzpiaLLLLLLLLLLLLLLLLLLLL",
"LLLLLLLo=qqaskkcjcMZBvvvBvk99xma97>>qckaxjasLLLLLLLLLLLLLLLLLLLL",
"LLLLLLLL=<wqajkckcMSVBvvBZk5afu2akssjcMzfzkdLLLLLLLLLLLLLLLLLLLL",
"LLLLLLLL o-9erdckcVSZBvvMZzpggpjMZSSGFxmkcvzLLLLLLLLLLLLLLLLLLLL",
"LLLLLLLLL =:wjkcccBSVBvcvMMvvvvvmNFGGGFCVmVmLLLLLLLLLLLLLLLLLLLL",
"LLLLLLLLLL.%4rjkckVSVMcjxvvvMhfmMVmmmdtwwtfmKLLLLLLLLLLLLLLLLLLL",
"LLLLLLLLLLL%&<rkcckCVmljslvvgfskktw8>#6###7wkFCLLLLLLLLLLLLLLLLL",
"LLLLLLLLLLLL%&4jkkkMVckaalvxzfa08>;#XXXXXX@@7tVLLLLLLLLLLLLLLLLL",
"LLLLLLLLLLLLL.=wakdmjjljulxmmi,;##OOO     XX#7dVLLLLLLLLLLLLLLLL",
"LLLLLLLLLLLLL $-9addrajjsjccf9#+X+++OOX     O#9kFLLLLLLLLLLLLLLL",
"LLLLLLLLLLLLLL.&,w9drrjjjjcj9*++;;;;++@OX   XO7wkLLLLLLLLLLLLLLL",
"LLLLLLLLLLLLLL .%,wwewakccce6*,4eeee046OOO   X#9tkLLLLLLLLLLLLLL",
"LLLLLLLLLLLLLLLL$&>9wwtvccd>*4apfjkkkdt4OOO   X7wtLLLLLLLLLLLLLL"
};
