/* XPM */
static char *result[] = {
/* columns rows colors chars-per-pixel */
"64 64 92 1 ",
"  c #4C371B",
". c #4E391B",
"X c #523C1D",
"o c #583E1E",
"O c #523E22",
"+ c #583D20",
"@ c #57401D",
"# c #59411F",
"$ c #5B4A1F",
"% c #554023",
"& c #5E4422",
"* c #5D4B21",
"= c #5D4B2F",
"- c #5E4C30",
"; c #614322",
": c #614A23",
"> c #6D4B27",
", c #664E2B",
"< c #6E4D29",
"1 c #734D2C",
"2 c #635424",
"3 c #6C5628",
"4 c #76502E",
"5 c #78512F",
"6 c #624F31",
"7 c #635136",
"8 c #6A5434",
"9 c #7C5732",
"0 c #745F3D",
"q c #76623E",
"w c #796B3F",
"e c #776540",
"r c #786541",
"t c #7D6E44",
"y c #7F6D48",
"u c #7F7145",
"i c #845835",
"p c #825C39",
"a c #846543",
"s c #806D42",
"d c #806E49",
"f c #916E4C",
"g c #807246",
"h c #817549",
"j c #8A754C",
"k c #93724F",
"l c #83765B",
"z c #86795C",
"x c #977351",
"c c #987553",
"v c #947852",
"b c #9A7855",
"n c #907E60",
"m c #938A6E",
"M c #958C70",
"N c #9E9373",
"B c #A69775",
"V c #AA9B76",
"C c #A29778",
"Z c #AA9E7A",
"A c #B2A27F",
"S c #ACA582",
"D c #AEA885",
"F c #B2A685",
"G c #B3A887",
"H c #B3AB8D",
"J c #BAAC8B",
"K c #BBB08E",
"L c #B4AE91",
"P c #B7B094",
"I c #BCB291",
"U c #BEBA9B",
"Y c #C1AD8F",
"T c #C0B38F",
"R c #C1B492",
"E c #C1B996",
"W c #C2BC9C",
"Q c #CABE9C",
"! c #C4BFA0",
"~ c #CCC19E",
"^ c #C5C1A3",
"/ c #CAC3A5",
"( c #CEC6A8",
") c #CFC8AA",
"_ c #D2C7AA",
"` c #D5C9AC",
"' c #D9CFB1",
"] c #DBD2B3",
"[ c #DDD9B8",
"{ c #E0DEBC",
"} c #E2E0BE",
"| c #E3E2C1",
/* pixels */
"&&&&&:2222239iiiiiiiiiiiiiiiiiiiiiiiiiiiiiiiiiiiiiiii932*&&&&;&;",
"&&&&%&$****:31141114414444111144441114411441141141411<:*#&o&%#&&",
"&&X...XXXX@.+++++++++++O++++o+oo&++o++++O++++++++++++oXX...X.O..",
"&&.O-77677777777777777-777777-%. O-777777767777777777777777-%.  ",
"&%.-lMMmmmmmmmmmMmmmmmmmmmmMMz8X.-lMMMmmmmmmmmmmmmmmmmmmmMMz8X. ",
"&#X7MHHHHHHHHHHHHHHHHHHHHHHHLN0o.7MLHHHHHHHHHHHHHHHHHHHHHHLNqo. ",
"&#X7MHPIIKKIIKPKIJKIPIIIPPJRRB0o.7MHIIPPJRKIPJIIPIIIPIIKIRIBq@X ",
"&#.7MHIERRRTIRRERTRTYRERRRRRRVq#.7mHIRTTRTRRRERRRIYRRRRTRREBq&. ",
"&+.7mLUWRTTTTEEWRRTTTRWEETTRRVw$.7mHUERTTTTRWWRITTKUWERKTRRVw$o.",
"&+X7mLU!ERRRREWWEERRREWWERRREVw$.7mHUWEERRREWWERRTREWE~URREZw$X ",
";&.7mHIEWWREWWEEWWURWWEEWWIRWSq@.7mHUEWWREWWEEWERRUUEEWERRWSu$. ",
"&oX6MHIEWWEEWWEEWEREWWEEWWUU~Aq@.7MHIEWWEEWWEEWWU~~EUEWEEWWFu$X ",
"&o.7mLUWEEWWERWWEEWWREWWEEWWWZw#.7mLUUEEWWEEEWEEUUIEWWEUW^WZw$@ ",
"&&.7mLUWEEWWEEWWEEWWEEWWEEWWEZs:X7mLUWEEWWEUWWEE~UEEWWEEWWWZw$. ",
"&#.7mLIEWWERWWEEWWEEWWEEWWEEWGf>o7mHIEWWEEEWEEWWIU~EEEWWEEWZt$@ ",
"&#.7mLIRWWEU!!EEW^EEWWEWWWEW!Gk1o6mHIUWWEE!!EEW!~U!WEWWWEU^St$. ",
";#.7mPUUEEW!!!!!!^!!^!!U^!!^^Hk1+7mLEWEEU^^^!W~^UW^^WW^^U^^Dt$% ",
"&#.7mP!~WW!!^^^^^^/^^^^^^^^/^Gf1+6mL!!EW^^^^^^^^~^^^^~^^^^^Dt$@ ",
"&@.7mP^(!!(/^^)/^^)/^^)/^^()^Gk1X6mP//^W/)^^)/^^))^^/)/^))^Dt$@ ",
";&.7mL^(//))//))^/)(//))^(())Hx<+7MP!_^())^^))/^))^^))//)))Dt$  ",
"&o.7mPW/))//((//))//()^/((//_Yf1+7mLW(((^^/_^/))^^)(//)//()Dt$@ ",
"&oX7mL!/__//_)//))//))//__//`Yx1X6mLW/__/()`//__^)__//__//'Kt$% ",
";&.7ML^_`___________`__)_`_``Yx1+6mP!```__``__)`))))____))'Lw$@ ",
"&oX7mP/`______________`____``Jf1+7mP/`_/``_/_`_```)_)`__)`)Dt$  ",
"&#.7mP!_!/__(/__/()_//__//``/Jf1+6mP!`!!__//__//_)//))/~)`)Dw$@ ",
"&#.7mP_`((__(!__//)_//__//(`_Gx1+7mPQ`_`__/(__~(_)//`)/()))Au$@ ",
"&o.7MP!`___``_`________`/```_Yx1.7mP!```____)`__``__`_)_```Gt$@ ",
";oX7MI!__``_`Q_``____``_`(`_`Yx>+6mL!`!``___`_____`__`))``'Jt$@ ",
"&&.7mLW(_``Q(!_``_//_``_(/_``Tx1O7MP!``'__~/_``_~/)``_~/)`)Kt$@ ",
"&oX7mL!/_``_(__``_//____//_``Yx1+7MP!!'Q__(/_``_//)`__(/)``Kt$@ ",
"&#.7mP^__``_____`____`__)/```Yx1+-nP!Q'!_``~_``___)``___)''Kt$% ",
"&#.7mP/````_````_````_``````'Yx1O7MW']Q'````_``_`_`__`_```)Ht$  ",
"+++7MP/``````_`````````'`'```Yx>+-nU!'`!`_``_```_`_``_``_``Yi;+ ",
";+ 7mP/_`_`__``_```````Q`Q```Yx1+7MP!'''_`__`__``__`_``_```Af++ ",
";+ 7mP/_`_```_``Q````````Q```Yx1+7nP!``````_```````__``````Ya;  ",
"-+ -mP(````_`_`_`````Q``''```Yx1 7n!!']Q````_`_``_````_````Ya++ ",
";++7MY(``_```__``````Q'`QQ''`Yc1+7MPQ```___`````_``_```_``'Ja&O ",
";+ 7MY(``_`__``_````````''Q'`Yc1+7MP`'``_``__`__``_`_`__```Jd=X ",
"++ 7MYY````_```_``````Q`'Q''`Yx> 7MP!````_````_`_`__``_````Ju$X ",
";++7bY_```_`_`````Q```'`'````Yx1+7MYQ```__`_```````_```_```Jt&X ",
";+ 7nP!Q``_``_``````_`_``````Yx1+7mY/````_`_`_`_`__``__````Jd$o ",
";+ 7MW!]```__`_````_````_`_`'Yx1 7mP_`````_```_`__``_`_````Jg$X ",
";++7MPQ]``````_``_````_`_`_``Yc1+7mPQ'``_````````_```__```'Ju$X ",
";+ 7MY!'`````_`_``____```_```Yc1+-mP!`````_```````_````__``Ju$. ",
";+ 7MP!'`````````````````_```Yk1 7MP!```__``````_```_____``Ju$X ",
";+ 7MP!``'`'`'`'`'''`````''''Rk>+7MP!'''``''``']'`'`'''''']Kg$X ",
";+O7MP!]]|[[[[[[][[[[[]][[[[{Ej* 7nPQ'][][[[[[[]]{{{[[[[[{{Uu$..",
";+O7MYQ'][[[[[[[[[[[[[[][[[{{Ru$ 7MPQ][[][[[[[[[{]{][[[[]{{Uu$% ",
";+O7MP!''']]]]'']`''`''`'''''Jh$X7mP/``''``''''```'''`''`']Kg$X.",
";+ 7MPQ'Q'Q'Q[]Q```''''`'`'']Jt$.6mP/_''''''``''``'````''']Kg$X ",
";+O7MP!'{[[[[[|[[[[[[[[[[[[[{Rto.6mPQ']{[[[[[[[[{{{{]{{]{{{Tu$. ",
";+ 7MPQ][[[[[[[[[[[[[[[[[[[[{Ito.6MI!'][[[[[[[[[]]{]{{]{]{{Tu$@ ",
";+.7mPQ]'']!'Q]]`]`]`''`'''''Kt$.7MP/`'```''`'''``''`''`'''Ku$@ ",
";+.7mP!`Q']'''']'`'`''`''`'''Kt$.6MP^`'''''`'``'''`'`'``)''Ku*% ",
";+O7mP!'}[][[]][[[[[[[[[[[[[[Iu@.7mL^'][[[[[[[[[{]{]{]{{{{{Ut$@ ",
";+X7mPQ][|}}}}}|{{{{{{}{{{{}}Uto 6MP^'{{{{{{{{{{{{{{{{{{{{}Wu$@ ",
"&oX7mP/`[|{{{{{{{{{[}[{{{{{||IaX 6mP!'{{{{{[}{[}{{{{{}}}{{|Wh$@ ",
";o.7MP/][||||{{|}}}}||{{{}{||WyX 7MP`'{}}}}}}}}}{{}{}}}}}}|Wh$@ ",
"&#.7MP/]}|||{|||}}}{|}|||||||!y+ 6MPQ'{}||}|}}}|}}{{}}}}}}}Wt@@ ",
"&@X8zCGKY!WYWWQQQQQQQQWQQQQQQFa;+8nZJYQQQQWQQQQQ~~~U~EUU~W~Z0@  ",
".O+=8quuyyhudvvbbbbbbcbbbbbbbfp449afxcbbcbbcbbbbvvjhuuyyhuuq2%..",
"..o#&%$@@@**+;<11<1111111111114444111111111111<1<<*$$$@@&$@@%@. ",
"..XX..@...O...+++++++X+++X++++++++++++++X++o++X+o@@@@%....%..%  ",
"  .         .                    O                             ."
};
