/* XPM */
static char *result[] = {
/* columns rows colors chars-per-pixel */
"64 64 67 1 ",
"  c #1F1C19",
". c #201D1A",
"X c #23211F",
"o c #262625",
"O c #282727",
"+ c #282827",
"@ c #272728",
"# c #292A2A",
"$ c #2D2F30",
"% c #2F3133",
"& c #303436",
"* c #32363A",
"= c #34393D",
"- c #383D3E",
"; c #373C42",
": c #383F44",
"> c #3A4146",
", c #3B4349",
"< c #3F4751",
"1 c #3F4851",
"2 c #40474A",
"3 c #424A4D",
"4 c #404752",
"5 c #434C53",
"6 c #454E5B",
"7 c #475055",
"8 c #495256",
"9 c #46515E",
"0 c #4C555A",
"q c #475360",
"w c #495562",
"e c #4E5B6B",
"r c #505D6F",
"t c #515E70",
"y c #536174",
"u c #556578",
"i c #58687D",
"p c #5B6D83",
"a c #5F7189",
"s c #61758E",
"d c #637791",
"f c #657994",
"g c #677D99",
"h c #687D9A",
"j c #6A809D",
"k c #6E86A5",
"l c #738CAD",
"z c #758EB1",
"x c #7691B3",
"c c #7A95BA",
"v c #7D99BF",
"b c #7E9BC2",
"n c #819EC5",
"m c #84A2CB",
"M c #87A7D1",
"N c #89A9D4",
"B c #8DAEDB",
"V c #8FB0DE",
"C c #8FB2E0",
"Z c #92B6E5",
"A c #95BAEA",
"S c #98BDEF",
"D c #99BFF1",
"F c #9BC1F5",
"G c #9EC5FA",
"H c #A0C7FD",
"J c None",
/* pixels */
"JJJJJJJJJJJJJJJJJJJJJJJJJJJJJJJJJJJJJJJJJJJJJJJJJJJJJJJJJJJJJJJJ",
"JJJJJJJJJJJJJJJJJJJJJJJJJJJJJJJJJJJJJJJJJJJJJJJJJJJJJJJJJJJJJJJJ",
"JJJJJJJJJJJJJJJJJJJJJJJJJJJJJJJJJJJJJJJJJJJJJJJJJJJJJJJJJJJJJJJJ",
"JJJJJJJJJJJJJJJJJJJJJJJJJJJJJJJJJJJJJJJJJJJJJJJJJJJJJJJJJJJJJJJJ",
"JJJJJJJJJJJJJJJJJJJJJJJJJJJJJJJJJJJJJJJJJJJJJJJJJJJJJJJJJJJJJJJJ",
"JJJJJJJJJJJJJJJJJJJJJJJJJJJJJJJJJJJJJJJJJJJJJJJJJJJJJJJJJJJJJJJJ",
"JJJJJJJJJJJJJJJJJJJJJJJJJJJJJJJJJJJJJJJJJJJJJJJJJJJJJJJJJJJJJJJJ",
"JJJJJJJJJJJJJJJJJJJJJJJJJJJJJJJJJJJJJJJJJJJJJJJJJJJJJJJJJJJJJJJJ",
"JJJJJJJJJJJJJJJJX+JJJJJJJJJJJJJJJJJJJJJJJJJJJJ@oJJJJJJJJJJJJJJJJ",
"JJJJJJJJJJJJJJoooo++++++o@+#o@@@+++++o@o+@o@+++@OOJJJJJJJJJJJJJJ",
"JJJJJJJJJJJJJ#####++########################+++####JJJJJJJJJJJJJ",
"JJJJJJJJJJJJ%#&%%%&%&#$#############$#####$#%#$###$#JJJJJJJJJJJJ",
"JJJJJJJJJJJ$&-------=*%%&%#%$$$$$$$$#%%%*&%&%%%%&%%##JJJJJJJJJJJ",
"JJJJJJJJJJ#%*->23222,>;==**%&%%&&&&%%*&===========*%##JJJJJJJJJJ",
"JJJJJJJJJ++%-238807732>;;;:>:::::::>>;:;;;;;;;;;;;*%$#@JJJJJJJJJ",
"JJJJJJJJJO+$-280008732>>,<59wwqqwwwwq6<,:;;;;>>>:;=%##@JJJJJJJJJ",
"JJJJJJJJJ++$-2800872--*-,qtpssssdfddauw<;=&=*=;;>;=%$+@JJJJJJJJJ",
"JJJJJJJJJ+#%-38083---%%-4tfzcvbvbbbbxhu1=$$%&&;;:;=%#@oJJJJJJJJJ",
"JJJJJJJJJ+#$-2883-*%#+#&6pzMZZZZCAZZNzp6%@o@$$&;:;=%$+@JJJJJJJJJ",
"JJJJJJJJ+##%-2772-%#XXo&6abAGGDAZASZNzp1%oXo@$%=;:=&%#++JJJJJJJJ",
"JJJJJJJJ#%%=>,11>-#+XXX&6fnAGDVmbbbbzft,%oXo##&*;:;&%%$$JJJJJJJJ",
"JJJJJJ##%%%=>,1<-&$+oXX&9fMDDBchaaaapr1;#oXo+#%=;::=*&%%##JJJJJJ",
"JJJJJ+#$%==>>>,>-&%+XXo&9fnAZbfe1<11<>=%#ooo+$%&;::::=&%$#OJJJJJ",
"JJJJO+#$%==>>>>;*&#+oXX&9fnAVca6:**;;&%##@o@##%=;:,,::;%$##oJJJJ",
"JJJJo+#%&=>>>>:;*%#+o.o%6fmZZbft61161:;&#@@@@#%=;:,,>;;&##+oJJJJ",
"JJJJo+##&=>>,,:;*&#+oXo%6fnAABchssssat6;#@X@@$%&;:>,,;=&%#+oJJJJ",
"JJJJo+#%%=:>,::;*&##o.o&6dnAGDBmbnmbcht:$@X@@$%=:>,>>:*&%##oJJJJ",
"JJJJ++##&=:>,,:;*&##o.o%6snAHHDAAASANzp6$@XX##%=;:,>,:;&##++JJJJ",
"JJJJOO#%&;:,,:,;=&##o.o$6dnAGGAZBVZZmlp:$@X@##$;;,,,>:;&##+oJJJJ",
"JJJJO+##%=:>,,:;*&##ooo&6dnADZMczzzhhdr:$@X@@#$&;:,:::*&%#+OJJJJ",
"JJJJo+#%&=;>,::;*%##o.o$6fnAAMlaprtpr9:;#@o@@$%;;::,>:=&$#+oJJJJ",
"JJJJOO##&;;>>,,;*&##.oo&6fmZCca6;;;;;;&$@@@@##$;;:>>,:=*##+oJJJJ",
"JJJJ@@##%;::,,:;*&##@Xo&9fnZVzu:@Xo@@@@@+++O+#&=:,,,>:=&$++oJJJJ",
"JJJJo@#$%;:,:,::;$#@XXX$9gMAVzt*o  XoX@@++oo+$&-,222,;=%%#+oJJJJ",
"JJJJo+#$&;::,,::*$#@oXX&9gMAVzy;X .XXXo@++X+O$*-2552,>=%##+@JJJJ",
"JJJJo+#$%;:,,:::;$$@XXo&9fmZBzy;@XXoO@@@++++##-25755,>=*%+++JJJJ",
"JJJJ@@#$%;;;,::;*&$#@oo&6abNmky:#@@@#####+###%-28885,>=%###oJJJJ",
"JJJJ@@#$%;::,:,:;&&$#$#*6pkcxfe>%##$$$$%$$%%--238085,:=%$#OoJJJJ",
"JJJJ@@@$%;::,,::;=**&$&;4radai9>*%$&&%***----2880005,:=&$#+oJJJJ",
"JJJJ@@@$%;::,,::;;;;*;;:,6weeq<:;;;;;;;;--22388000851>=%###oJJJJ",
"JJJJo+##%;:::::::;;;;;;::,,,<,>:;;;;;;;;;:2588000873,:=&%#+oJJJJ",
"JJJJ@##%&=;:::;;;;;;;;;;==;====;;;;;;;=;;:,33383552,,:=&###oJJJJ",
"JJJJo+##&;:::=**&*&**;&&&&%%%%****%*****&-;;2>>2>>>>>:=%%#+oJJJJ",
"JJJJo+#%&=;;=&$$$$$$$$$$$$$##$$$$$$%%$$$%%&&&*&&&*=;::;%$#+oJJJJ",
"JJJJo+#$*=:;=%##############################$$##$$&*;;=*$#+oJJJJ",
"JJJJ++#$%=;;=%##oo#@@######O#O###@OO##OO#OOOOOOO+#%*;:;%$#+OJJJJ",
"JJJJo+#$&;;;*%#@ooo##o@@ooooooo@@@@@@@@@OOOOOoooo#%*;;;*$#+oJJJJ",
"JJJJo###*=;;*%#oo#@oo@@oOO#OO#OO@OOOOOOOOOOOOOoOo#%*;;=*##+oJJJJ",
"JJJJo+#%*=;;*%#+@@#+#o#o##o##o#o#O#oo##o#o#oo#+o##%*;;=&$#+oJJJJ",
"JJJJJ+##%===&%#+oOo#o#o##o#oo#O#o#o###o#o#O##o#o+#%*=;=%##+JJJJJ",
"JJJJJ##%%&**%$#+O+#o#o#oo#o##oo##o#oo##o#o#oo##O+#$%&*&&$##JJJJJ",
"JJJJJJJ#%%%%$##+o#+#o#O##o#+o##oo##o#oo###o#o#o##+#$%%%&$JJJJJJJ",
"JJJJJJJJ$######+#o#o#o#Oo#O#o#o##O#o#o#+o#o##O#oo#######JJJJJJJJ",
"JJJJJJJJJ###+++#O#o#o#o#o##o#o#+o#o#o#o##o#oo#o#+++####JJJJJJJJJ",
"JJJJJJJJJ#@@@#+##o+##o#o##o#o#o####o#Oo#o#O##oO#++#+#++JJJJJJJJJ",
"JJJJJJJJJJJJo@JJJJJJJJJJJJJJJJJJJJJJJJJJJJJJJJJJJJ++JJJJJJJJJJJJ",
"JJJJJJJJJJJJJJJJJJJJJJJJJJJJJJJJJJJJJJJJJJJJJJJJJJJJJJJJJJJJJJJJ",
"JJJJJJJJJJJJJJJJJJJJJJJJJJJJJJJJJJJJJJJJJJJJJJJJJJJJJJJJJJJJJJJJ",
"JJJJJJJJJJJJJJJJJJJJJJJJJJJJJJJJJJJJJJJJJJJJJJJJJJJJJJJJJJJJJJJJ",
"JJJJJJJJJJJJJJJJJJJJJJJJJJJJJJJJJJJJJJJJJJJJJJJJJJJJJJJJJJJJJJJJ",
"JJJJJJJJJJJJJJJJJJJJJJJJJJJJJJJJJJJJJJJJJJJJJJJJJJJJJJJJJJJJJJJJ",
"JJJJJJJJJJJJJJJJJJJJJJJJJJJJJJJJJJJJJJJJJJJJJJJJJJJJJJJJJJJJJJJJ",
"JJJJJJJJJJJJJJJJJJJJJJJJJJJJJJJJJJJJJJJJJJJJJJJJJJJJJJJJJJJJJJJJ",
"JJJJJJJJJJJJJJJJJJJJJJJJJJJJJJJJJJJJJJJJJJJJJJJJJJJJJJJJJJJJJJJJ"
};
