/* XPM */
static char *result[] = {
/* columns rows colors chars-per-pixel */
"64 64 50 1 ",
"  c #FF952A",
". c #FF8A15",
"X c #FF8B16",
"o c #FF7F00",
"O c #FF7E00",
"+ c #FF8101",
"@ c #FF962C",
"# c #FF972D",
"$ c #FF9C38",
"% c #FF9122",
"& c #FF870D",
"* c #FF8912",
"= c #FF8000",
"- c #FF8204",
"; c #FFB871",
": c #FFB972",
"> c #FFB870",
", c #FFAD5B",
"< c #FF9B37",
"1 c #FFA346",
"2 c #FF8205",
"3 c #FF8001",
"4 c #FF952B",
"5 c #FF9C37",
"6 c #FF9830",
"7 c #FF9021",
"8 c #FF8C18",
"9 c #FF9327",
"0 c #FF9325",
"q c #FF9123",
"w c #FF8D1A",
"e c #FFA142",
"r c #FFB76F",
"t c #FFB264",
"y c #FFB468",
"u c #FFA74D",
"i c #FF9E3C",
"p c #FF9932",
"a c #FFB56A",
"s c #FFB367",
"d c #FFA449",
"f c #FFA64D",
"g c #FF8408",
"h c #FF8A13",
"j c #FF8203",
"k c #FF860B",
"l c #FF8409",
"z c #FF8811",
"x c #FF8A14",
"c c white",
/* pixels */
" .XXXXXXXXXXXXXXXXXXXXXXXXXXXXXXXXXXXXXXXXXXXXXXXXXXXXXXXXXXXX. ",
".oOOOoooooooooooooooooooooooooooooooooooooooooooooooooooooooooo.",
"X+@#$%&*o=====================================================oX",
"X-;:>,<12ooooo================================================oX",
"X3@$4567890 qw================================================oX",
"X=ertyuipas>df================================================oX",
"Xogh**jklz*x-g================================================oX",
"Xo=ooo===ooo==================================================oX",
"Xo============================================================oX",
"Xo============================================================oX",
"Xo============================================================oX",
"Xo============================================================oX",
"Xo============================================================oX",
"Xo============================================================oX",
"Xo============================================================oX",
"Xo============================================================oX",
"Xo============================================================oX",
"Xo============================================================oX",
"Xo============================================================oX",
"Xo============================================================oX",
"Xo============================================================oX",
"Xo============================================================oX",
"Xo============================================================oX",
"Xo============================================================oX",
"Xo============================================================oX",
"Xo============================================================oX",
"Xo============================================================oX",
"Xo============================================================oX",
"Xo============================================================oX",
"Xo============================================================oX",
"Xo============================================================oX",
"Xo============================================================oX",
"Xo============================================================oX",
"Xo============================================================oX",
"Xo============================================================oX",
"Xo============================================================oX",
"Xo============================================================oX",
"Xo============================================================oX",
"Xo============================================================oX",
"Xo============================================================oX",
"Xo============================================================oX",
"Xo============================================================oX",
"Xo============================================================oX",
"Xo============================================================oX",
"Xo============================================================oX",
"Xo============================================================oX",
"Xo============================================================oX",
"Xo============================================================oX",
"Xo============================================================oX",
"Xo============================================================oX",
"Xo============================================================oX",
"Xo============================================================oX",
"Xo============================================================oX",
"Xo============================================================oX",
"Xo============================================================oX",
"Xo============================================================oX",
"Xo============================================================oX",
"Xo============================================================oX",
"Xo============================================================oX",
"Xo============================================================oX",
"Xo============================================================oX",
"Xo============================================================oX",
".oooooooooooooooooooooooooooooooooooooooooooooooooooooooooooooo.",
" .XXXXXXXXXXXXXXXXXXXXXXXXXXXXXXXXXXXXXXXXXXXXXXXXXXXXXXXXXXXX. "
};
