/* XPM */
static char *result[] = {
/* columns rows colors chars-per-pixel */
"64 64 51 1 ",
"  c #DA2A4F",
". c #D7153E",
"X c #D7163F",
"o c #D3002B",
"O c #D2002A",
"+ c #D3002C",
"@ c #D3012E",
"# c #DB2C51",
"$ c #DB2D52",
"% c #DD385B",
"& c #D92249",
"* c #D50D38",
"= c #D6123C",
"- c #D3002D",
"; c #D40430",
": c #E7718A",
"> c #E7728B",
", c #E67089",
"< c #E35B78",
"1 c #DD375A",
"2 c #DF4666",
"3 c #D40531",
"4 c #DA2B50",
"5 c #DB3055",
"6 c #D92148",
"7 c #D71841",
"8 c #DA274D",
"9 c #D9254C",
"0 c #DA2A50",
"q c #D9234A",
"w c #D71A42",
"e c #DE4264",
"r c #E66F88",
"t c #E4647F",
"y c #E56882",
"u c #E04D6D",
"i c #DD3C5F",
"p c #DC3256",
"a c #E56A84",
"s c #E56782",
"d c #E04969",
"f c #E04D6C",
"g c #D40834",
"h c #D6133D",
"j c #D6123B",
"k c #D40330",
"l c #D50B36",
"z c #D40934",
"x c #D6113B",
"c c #D6143E",
"v c white",
/* pixels */
" .XXXXXXXXXXXXXXXXXXXXXXXXXXXXXXXXXXXXXXXXXXXXXXXXXXXXXXXXXXXX. ",
".oOOOooo++++++++++++++++++++++++++++++++++++++++++++++++++++++o.",
"X@#$%&*=+-----------------------------------------------------+X",
"X;:>,<123oooo+------------------------------------------------+X",
"X@#%41567890qw------------------------------------------------+X",
"X-ertyuipas,df------------------------------------------------+X",
"X+gh=jklzx=c;g------------------------------------------------+X",
"X+-+++-+-+++--------------------------------------------------+X",
"X+------------------------------------------------------------+X",
"X+------------------------------------------------------------+X",
"X+------------------------------------------------------------+X",
"X+------------------------------------------------------------+X",
"X+------------------------------------------------------------+X",
"X+------------------------------------------------------------+X",
"X+------------------------------------------------------------+X",
"X+------------------------------------------------------------+X",
"X+------------------------------------------------------------+X",
"X+------------------------------------------------------------+X",
"X+------------------------------------------------------------+X",
"X+------------------------------------------------------------+X",
"X+------------------------------------------------------------+X",
"X+------------------------------------------------------------+X",
"X+------------------------------------------------------------+X",
"X+------------------------------------------------------------+X",
"X+------------------------------------------------------------+X",
"X+------------------------------------------------------------+X",
"X+------------------------------------------------------------+X",
"X+------------------------------------------------------------+X",
"X+------------------------------------------------------------+X",
"X+------------------------------------------------------------+X",
"X+------------------------------------------------------------+X",
"X+------------------------------------------------------------+X",
"X+------------------------------------------------------------+X",
"X+------------------------------------------------------------+X",
"X+------------------------------------------------------------+X",
"X+------------------------------------------------------------+X",
"X+------------------------------------------------------------+X",
"X+------------------------------------------------------------+X",
"X+------------------------------------------------------------+X",
"X+------------------------------------------------------------+X",
"X+------------------------------------------------------------+X",
"X+------------------------------------------------------------+X",
"X+------------------------------------------------------------+X",
"X+------------------------------------------------------------+X",
"X+------------------------------------------------------------+X",
"X+------------------------------------------------------------+X",
"X+------------------------------------------------------------+X",
"X+------------------------------------------------------------+X",
"X+------------------------------------------------------------+X",
"X+------------------------------------------------------------+X",
"X+------------------------------------------------------------+X",
"X+------------------------------------------------------------+X",
"X+------------------------------------------------------------+X",
"X+------------------------------------------------------------+X",
"X+------------------------------------------------------------+X",
"X+------------------------------------------------------------+X",
"X+------------------------------------------------------------+X",
"X+------------------------------------------------------------+X",
"X+------------------------------------------------------------+X",
"X+------------------------------------------------------------+X",
"X+------------------------------------------------------------+X",
"X+------------------------------------------------------------+X",
".o++++++++++++++++++++++++++++++++++++++++++++++++++++++++++++o.",
" .XXXXXXXXXXXXXXXXXXXXXXXXXXXXXXXXXXXXXXXXXXXXXXXXXXXXXXXXXXXX. "
};
